<svg xmlns="http://www.w3.org/2000/svg" viewBox="0 0 106.19 106.19"><defs><style>.cls-1{fill:#fff;}</style></defs><title>strategyLogo</title><g id="Layer_2" data-name="Layer 2"><g id="Layer_1-2" data-name="Layer 1"><path class="cls-1" d="M106.19,106.19H0V0H106.19ZM4.8,101.39h96.59V4.8H4.8Z"/><rect class="cls-1" x="26.15" y="87.42" width="53.89" height="4.8"/><path class="cls-1" d="M31.73,68.92h-4.8a11,11,0,0,1,11-11h19v4.8h-19A6.17,6.17,0,0,0,31.73,68.92Z"/><polygon class="cls-1" points="80.04 79.98 26.93 79.98 26.93 68.92 31.73 68.92 31.73 75.18 80.04 75.18 80.04 79.98"/><path class="cls-1" d="M77.18,65.85"/><path class="cls-1" d="M79.58,68.92h-4.8V49.58A30.86,30.86,0,0,0,46.37,18.86v6.8A6.32,6.32,0,0,1,40.05,32a8.33,8.33,0,0,0-8.32,8.32v3.12a.88.88,0,0,0,.88.88H48.36a8.37,8.37,0,0,0,8.36-8.36h4.8A13.17,13.17,0,0,1,48.36,49.1H32.61a5.69,5.69,0,0,1-5.68-5.68V40.3A13.14,13.14,0,0,1,40.05,27.18a1.52,1.52,0,0,0,1.52-1.52V14H44A35.65,35.65,0,0,1,79.58,49.58Z"/><rect class="cls-1" x="45.96" y="46.7" width="4.8" height="6.51"/></g></g></svg>