<svg xmlns="http://www.w3.org/2000/svg" viewBox="0 0 106.19 106.19"><defs><style>.cls-1{fill:#fff;}</style></defs><title>creativeLogo</title><g id="Layer_2" data-name="Layer 2"><g id="Layer_1-2" data-name="Layer 1"><path class="cls-1" d="M106.19,106.19H0V0H106.19ZM4.8,101.39h96.59V4.8H4.8Z"/><rect class="cls-1" x="38.3" y="89.01" width="29.7" height="4.8"/><path class="cls-1" d="M68.05,71.33l-3.39-3.39a16.35,16.35,0,1,0-23.12,0l-3.39,3.39a21.15,21.15,0,1,1,29.91,0Z"/><path class="cls-1" d="M44.16,83.68h-4.8v-9.2a4.67,4.67,0,0,0-1.27-3.21s0,0,0,0l3.14-3.63a4.11,4.11,0,0,1,.38.38,9.41,9.41,0,0,1,2.53,6.45Z"/><path class="cls-1" d="M66.81,83.68H62v-9.2A9.46,9.46,0,0,1,64.59,68a3.53,3.53,0,0,1,.34-.33l3.14,3.63.1-.09a4.76,4.76,0,0,0-1.34,3.28Z"/><path class="cls-1" d="M53.1,64.79a7,7,0,1,1,7-7A7,7,0,0,1,53.1,64.79Zm0-9.25a2.23,2.23,0,1,0,2.23,2.23A2.23,2.23,0,0,0,53.1,55.54Z"/><rect class="cls-1" x="50.7" y="64.86" width="4.8" height="18.82"/><rect class="cls-1" x="50.7" y="14.78" width="4.8" height="10.38"/><rect class="cls-1" x="34.11" y="19.22" width="4.8" height="10.38" transform="translate(-7.31 21.53) rotate(-30)"/><rect class="cls-1" x="21.97" y="31.36" width="4.8" height="10.38" transform="translate(-19.47 39.38) rotate(-60)"/><rect class="cls-1" x="14.74" y="50.74" width="10.38" height="4.8"/><rect class="cls-1" x="81.07" y="50.74" width="10.38" height="4.8"/><rect class="cls-1" x="76.63" y="34.15" width="10.38" height="4.8" transform="translate(-7.31 45.8) rotate(-29.99)"/><rect class="cls-1" x="64.49" y="22.01" width="10.38" height="4.8" transform="translate(13.7 72.55) rotate(-60)"/></g></g></svg>