<svg xmlns="http://www.w3.org/2000/svg" viewBox="0 0 106.19 106.19"><defs><style>.cls-1{fill:#fff;}</style></defs><title>reachLogo</title><g id="Layer_2" data-name="Layer 2"><g id="Layer_1-2" data-name="Layer 1"><path class="cls-1" d="M106.19,106.19H0V0H106.19ZM4.8,101.39h96.59V4.8H4.8Z"/><path class="cls-1" d="M22.85,91.74a11.91,11.91,0,0,1-8.42-20.32l6.27-6.27,3.39,3.39-6.27,6.27A7.11,7.11,0,0,0,27.88,84.87l6.27-6.27L37.54,82l-6.27,6.27A11.82,11.82,0,0,1,22.85,91.74Z"/><path class="cls-1" d="M74.73,44.81l-3.39-3.39A7.11,7.11,0,0,0,61.28,31.36L57.89,28A11.91,11.91,0,0,1,74.73,44.81Z"/><path class="cls-1" d="M41.5,83.55a22.62,22.62,0,0,1-16-38.62L49.77,20.65l32,32L57.51,76.93A22.56,22.56,0,0,1,41.5,83.55Zm8.27-56.1L28.9,48.32A17.83,17.83,0,0,0,54.11,73.54L75,52.66Z"/><path class="cls-1" d="M68.27,94a8.51,8.51,0,0,1-6.06-2.5L50.9,80.14l3.39-3.39L65.6,88.06a3.87,3.87,0,0,0,5.32,0,3.77,3.77,0,0,0,0-5.32L59.62,71.43,63,68,74.32,79.34A8.56,8.56,0,0,1,68.27,94Z"/><rect class="cls-1" x="62.53" y="75.99" width="6.16" height="4.8" transform="translate(-36.21 69.36) rotate(-45)"/><rect class="cls-1" x="47.05" y="28.84" width="4.8" height="21.56" transform="translate(-13.53 46.57) rotate(-45)"/><rect class="cls-1" x="86.84" y="36.33" width="4.8" height="9.34" transform="translate(26.55 116.59) rotate(-75)"/><rect class="cls-1" x="78.67" y="16.84" width="9.34" height="4.8" transform="translate(10.81 64.57) rotate(-45)"/><rect class="cls-1" x="59.43" y="9.96" width="4.8" height="9.34" transform="translate(-1.68 16.5) rotate(-15)"/></g></g></svg>