<svg xmlns="http://www.w3.org/2000/svg" viewBox="0 0 106.19 106.19"><defs><style>.cls-1{fill:#fff;}</style></defs><title>productionLogo</title><g id="Layer_2" data-name="Layer 2"><g id="Layer_1-2" data-name="Layer 1"><path class="cls-1" d="M106.19,106.19H0V0H106.19ZM4.8,101.39h96.59V4.8H4.8Z"/><path class="cls-1" d="M36.39,95.12A8.58,8.58,0,1,1,45,86.54,8.59,8.59,0,0,1,36.39,95.12Zm0-12.36a3.78,3.78,0,1,0,3.78,3.78A3.78,3.78,0,0,0,36.39,82.76Z"/><path class="cls-1" d="M70,95.15a8.58,8.58,0,1,1,8.58-8.58A8.59,8.59,0,0,1,70,95.15Zm0-12.36a3.78,3.78,0,1,0,3.78,3.78A3.78,3.78,0,0,0,70,82.79Z"/><path class="cls-1" d="M53.1,28.2a8.58,8.58,0,1,1,8.58-8.58A8.59,8.59,0,0,1,53.1,28.2Zm0-12.36a3.78,3.78,0,1,0,3.78,3.78A3.78,3.78,0,0,0,53.1,15.84Z"/><path class="cls-1" d="M78.31,82.72H27.89V57.85a25.21,25.21,0,0,1,50.42,0Zm-45.62-4.8H73.51V57.85a20.41,20.41,0,0,0-40.82,0Z"/><rect class="cls-1" x="43.32" y="51.53" width="20.48" height="4.8"/><polygon class="cls-1" points="92.74 62.58 75.91 62.58 75.91 57.78 87.94 57.78 87.94 39.74 92.74 39.74 92.74 62.58"/><polygon class="cls-1" points="18.26 72.87 13.46 72.87 13.46 50.03 30.29 50.03 30.29 54.83 18.26 54.83 18.26 72.87"/><rect class="cls-1" x="50.7" y="25.55" width="4.8" height="9.48"/></g></g></svg>