<svg xmlns="http://www.w3.org/2000/svg" viewBox="0 0 106.19 106.19"><defs><style>.cls-1{fill:#fff;}</style></defs><title>innovationLogo</title><g id="Layer_2" data-name="Layer 2"><g id="Layer_1-2" data-name="Layer 1"><path class="cls-1" d="M106.19,106.19H0V0H106.19ZM4.8,101.39h96.59V4.8H4.8Z"/><path class="cls-1" d="M31.31,40.85,19.65,29.19l6.1-6.1a8.63,8.63,0,0,1,12.19,0l5.57,5.57-3.39,3.39-5.57-5.57a3.83,3.83,0,0,0-5.41,0l-2.7,2.7,8.27,8.27Z"/><path class="cls-1" d="M77,86.55,65.34,74.88l3.39-3.39L77,79.76l2.7-2.7a3.83,3.83,0,0,0,0-5.41l-5.57-5.57,3.39-3.39,5.57,5.57a8.63,8.63,0,0,1,0,12.19Z"/><rect class="cls-1" x="16.35" y="81.49" width="11.78" height="4.8" transform="translate(-52.81 40.29) rotate(-45)"/><rect class="cls-1" x="27.76" y="68.08" width="15.78" height="4.8" transform="translate(-39.39 45.85) rotate(-45)"/><path class="cls-1" d="M65.47,52.92A12.06,12.06,0,1,1,74,49.39h0A12,12,0,0,1,65.47,52.92Zm0-19.32a7.26,7.26,0,1,0,5.14,2.12A7.24,7.24,0,0,0,65.47,33.61Z"/><path class="cls-1" d="M59.11,79l-.89-.29A48,48,0,0,1,27.57,48.12l-.29-.89.39-.85a55.88,55.88,0,0,1,57.7-32.08A7.66,7.66,0,0,1,92,21,55.88,55.88,0,0,1,60,78.65ZM32.44,47.52A43.22,43.22,0,0,0,58.82,73.89,51.08,51.08,0,0,0,87.28,21.55a2.87,2.87,0,0,0-2.5-2.5A51.08,51.08,0,0,0,32.44,47.52Z"/><path class="cls-1" d="M67.49,72.24A52.36,52.36,0,0,1,46.8,59.52l3.39-3.39A46.89,46.89,0,0,0,69,67.67Z"/><path class="cls-1" d="M19.37,70.44A16.23,16.23,0,0,1,7.82,65.65l3.39-3.39a11.54,11.54,0,0,0,16.32,0L34,55.83l3.39,3.39-6.43,6.43A16.23,16.23,0,0,1,19.37,70.44Z"/><path class="cls-1" d="M40.37,98.21a16.34,16.34,0,0,1,0-23.11l6.43-6.43,3.39,3.39-6.43,6.43a11.54,11.54,0,0,0,0,16.32Z"/></g></g></svg>