<svg xmlns="http://www.w3.org/2000/svg" xmlns:xlink="http://www.w3.org/1999/xlink" viewBox="0 0 162.52 188.82"><defs><style>.cls-1{fill:#ed345a;}.cls-2{fill:#585fa4;}.cls-3,.cls-5{opacity:0.75;}.cls-3{fill:url(#_ÂÁ_Ï_ÌÌ_È_ËÂÌÚ_72);}.cls-4{opacity:0.65;fill:url(#_ÂÁ_Ï_ÌÌ_È_ËÂÌÚ_78);}.cls-5{fill:url(#_ÂÁ_Ï_ÌÌ_È_ËÂÌÚ_72-2);}.cls-6{fill:#ced0dd;}</style><linearGradient id="_ÂÁ_Ï_ÌÌ_È_ËÂÌÚ_72" x1="55.59" y1="159.52" x2="55.59" y2="6.18" gradientUnits="userSpaceOnUse"><stop offset="0" stop-color="#a52e59"/><stop offset="0.21" stop-color="#ac2f59"/><stop offset="0.5" stop-color="#bf3059"/><stop offset="0.85" stop-color="#de335a"/><stop offset="1" stop-color="#ed345a"/></linearGradient><linearGradient id="_ÂÁ_Ï_ÌÌ_È_ËÂÌÚ_78" x1="75.53" y1="171.76" x2="75.53" y2="18.41" gradientUnits="userSpaceOnUse"><stop offset="0" stop-color="#585fa4"/><stop offset="1" stop-color="#8c8da8"/></linearGradient><linearGradient id="_ÂÁ_Ï_ÌÌ_È_ËÂÌÚ_72-2" x1="100.57" y1="185.93" x2="100.57" y2="32.58" xlink:href="#_ÂÁ_Ï_ÌÌ_È_ËÂÌÚ_72"/></defs><title>graph4</title><g id="Layer_2" data-name="Layer 2"><g id="_ÎÓÈ_1" data-name="—ÎÓÈ_1"><path class="cls-1" d="M150.89,58.23v.38l-2.15,4.76h-.57l2.11-4.67h-2.64v1h-.52V58.23Z"/><path class="cls-1" d="M155.21,61.16a1.2,1.2,0,0,1,.26.78,1.29,1.29,0,0,1-.24.78,1.53,1.53,0,0,1-.69.51,2.86,2.86,0,0,1-1.06.18A2.37,2.37,0,0,1,152,63a1.28,1.28,0,0,1-.53-1.08,1.22,1.22,0,0,1,.25-.78,1.53,1.53,0,0,1,.74-.48,1.28,1.28,0,0,1-.6-.44,1.16,1.16,0,0,1-.21-.69,1.18,1.18,0,0,1,.49-1,2.14,2.14,0,0,1,1.31-.37,2.52,2.52,0,0,1,1,.17,1.43,1.43,0,0,1,.63.47,1.18,1.18,0,0,1,.23.72,1.12,1.12,0,0,1-.21.69,1.33,1.33,0,0,1-.61.44A1.56,1.56,0,0,1,155.21,61.16Zm-.67,1.53a.89.89,0,0,0,.39-.76.88.88,0,0,0-.39-.75,2.19,2.19,0,0,0-2.13,0,.88.88,0,0,0-.39.75.89.89,0,0,0,.38.76,2.19,2.19,0,0,0,2.13,0Zm-2-2.45a1.54,1.54,0,0,0,.93.25,1.56,1.56,0,0,0,.94-.25.83.83,0,0,0,0-1.35,1.56,1.56,0,0,0-.93-.25,1.54,1.54,0,0,0-.93.25.84.84,0,0,0,0,1.35Z"/><path class="cls-1" d="M156.45,60.6a1.75,1.75,0,0,1,0-2,1.11,1.11,0,0,1,1.68,0,1.75,1.75,0,0,1,0,2,1.11,1.11,0,0,1-1.68,0Zm1.42-.23a1.52,1.52,0,0,0,0-1.56.73.73,0,0,0-1.16,0,1.53,1.53,0,0,0,0,1.56.73.73,0,0,0,1.16,0Zm2.54-2.14h.43l-3.51,5.14h-.43Zm-.8,4.79a1.74,1.74,0,0,1,0-2,1.11,1.11,0,0,1,1.68,0,1.76,1.76,0,0,1,0,2,1.11,1.11,0,0,1-1.68,0Zm1.42-.23a1.53,1.53,0,0,0,0-1.56.68.68,0,0,0-.58-.29.69.69,0,0,0-.58.28,1.52,1.52,0,0,0,0,1.56.69.69,0,0,0,.58.28A.68.68,0,0,0,161,62.79Z"/><path class="cls-1" d="M151.63,114.16h-1v1.35h-.53v-1.35h-2.9v-.38l2.72-3.41h.59l-2.63,3.32h2.23V112.5h.51v1.19h1Z"/><path class="cls-1" d="M153.18,115.23a2.06,2.06,0,0,1-.73-.91,3.84,3.84,0,0,1,0-2.78,2.06,2.06,0,0,1,.73-.91,1.94,1.94,0,0,1,2.12,0,2.1,2.1,0,0,1,.73.91,3.8,3.8,0,0,1,0,2.78,2.1,2.1,0,0,1-.73.91,1.94,1.94,0,0,1-2.12,0Zm1.85-.42a1.61,1.61,0,0,0,.53-.73,3.57,3.57,0,0,0,0-2.31,1.62,1.62,0,0,0-.53-.73,1.37,1.37,0,0,0-1.58,0,1.62,1.62,0,0,0-.53.73,3.57,3.57,0,0,0,0,2.31,1.61,1.61,0,0,0,.53.73,1.37,1.37,0,0,0,1.58,0Z"/><path class="cls-1" d="M157.37,112.73a1.75,1.75,0,0,1,0-2,1.11,1.11,0,0,1,1.68,0,1.75,1.75,0,0,1,0,2,1.11,1.11,0,0,1-1.68,0Zm1.42-.23a1.52,1.52,0,0,0,0-1.56.73.73,0,0,0-1.16,0,1.53,1.53,0,0,0,0,1.56.73.73,0,0,0,1.16,0Zm2.54-2.14h.43l-3.51,5.14h-.43Zm-.8,4.79a1.74,1.74,0,0,1,0-2,1.11,1.11,0,0,1,1.68,0,1.76,1.76,0,0,1,0,2,1.11,1.11,0,0,1-1.68,0Zm1.42-.23a1.53,1.53,0,0,0,0-1.56.68.68,0,0,0-.58-.29.69.69,0,0,0-.58.28,1.52,1.52,0,0,0,0,1.56.69.69,0,0,0,.58.28A.68.68,0,0,0,161.94,114.93Z"/><polygon class="cls-2" points="74.72 188.63 74.39 188.82 0 145.83 0.33 145.63 74.72 188.63"/><polygon class="cls-2" points="151.06 143.84 150.72 144.03 76.33 101.04 76.66 100.84 151.06 143.84"/><polygon class="cls-3" points="17.43 154.99 93.75 110.92 93.75 0 17.43 154.99"/><polygon class="cls-4" points="37.36 167.23 113.69 123.16 113.69 12.24 37.36 167.23"/><polygon class="cls-5" points="62.41 181.4 138.74 137.33 138.74 26.41 62.41 181.4"/><polygon class="cls-6" points="74.94 174.41 74.51 174.18 88.41 148.3 88.52 148.28 102.81 145.43 112.65 106.41 126.93 115.27 138.5 62.3 138.97 62.4 127.26 116.05 112.96 107.17 103.21 145.84 103.06 145.87 88.73 148.73 74.94 174.41"/><path class="cls-6" d="M87.28,149.24a2.75,2.75,0,0,1,1.25-2.16c.69-.4,1.25-.08,1.25.72A2.75,2.75,0,0,1,88.53,150C87.84,150.35,87.28,150,87.28,149.24Z"/><path class="cls-6" d="M73.48,174.91a2.75,2.75,0,0,1,1.25-2.16c.69-.4,1.25-.08,1.25.72a2.75,2.75,0,0,1-1.25,2.16C74,176,73.48,175.7,73.48,174.91Z"/><path class="cls-6" d="M101.72,146.35A2.75,2.75,0,0,1,103,144.2c.69-.4,1.25-.08,1.25.72a2.75,2.75,0,0,1-1.25,2.16C102.28,147.47,101.72,147.15,101.72,146.35Z"/><path class="cls-6" d="M111.68,107.64a2.75,2.75,0,0,1,1.25-2.16c.69-.4,1.25-.08,1.25.72a2.75,2.75,0,0,1-1.25,2.16C112.23,108.76,111.68,108.44,111.68,107.64Z"/><path class="cls-6" d="M125.86,116.22a2.75,2.75,0,0,1,1.25-2.16c.69-.4,1.25-.08,1.25.72a2.75,2.75,0,0,1-1.25,2.16C126.42,117.34,125.86,117,125.86,116.22Z"/><path class="cls-6" d="M137.49,63.07a2.75,2.75,0,0,1,1.25-2.16c.69-.4,1.25-.08,1.25.72a2.75,2.75,0,0,1-1.25,2.16C138,64.19,137.49,63.86,137.49,63.07Z"/></g></g></svg>