<svg xmlns="http://www.w3.org/2000/svg" xmlns:xlink="http://www.w3.org/1999/xlink" viewBox="0 0 284.93 263.99"><defs><style>.cls-1{opacity:0.75;fill:url(#_ÂÁ_Ï_ÌÌ_È_ËÂÌÚ_109);}.cls-2{opacity:0.7;fill:url(#_ÂÁ_Ï_ÌÌ_È_ËÂÌÚ_72);}.cls-3{opacity:0.8;fill:url(#_ÂÁ_Ï_ÌÌ_È_ËÂÌÚ_72-2);}.cls-4{fill:#585fa4;}.cls-5{fill:#7986cc;}.cls-6{fill:#fff;}.cls-7{fill:#ced0dd;}</style><linearGradient id="_ÂÁ_Ï_ÌÌ_È_ËÂÌÚ_109" y1="207.56" x2="284.93" y2="207.56" gradientUnits="userSpaceOnUse"><stop offset="0" stop-color="#35386e"/><stop offset="0.39" stop-color="#474c8a"/><stop offset="0.75" stop-color="#545a9d"/><stop offset="1" stop-color="#585fa4"/></linearGradient><linearGradient id="_ÂÁ_Ï_ÌÌ_È_ËÂÌÚ_72" x1="192.71" y1="850.25" x2="192.71" y2="778.4" gradientTransform="matrix(0.87, -0.5, 0, 1.15, -34.31, -642.56)" gradientUnits="userSpaceOnUse"><stop offset="0" stop-color="#a52e59"/><stop offset="0.21" stop-color="#ac2f59"/><stop offset="0.5" stop-color="#bf3059"/><stop offset="0.85" stop-color="#de335a"/><stop offset="1" stop-color="#ed345a"/></linearGradient><linearGradient id="_ÂÁ_Ï_ÌÌ_È_ËÂÌÚ_72-2" x1="217.1" y1="874.07" x2="217.1" y2="802.22" xlink:href="#_ÂÁ_Ï_ÌÌ_È_ËÂÌÚ_72"/></defs><title>graph1</title><g id="Layer_2" data-name="Layer 2"><g id="Isolation_Mode" data-name="Isolation Mode"><polygon class="cls-1" points="43.77 263.99 0 238.72 241.16 151.13 284.93 176.4 43.77 263.99"/><path class="cls-2" d="M20.64,238.36l223.88-77.61S212.73,8.18,175.5,97C123,222.22,93.95,146.36,73.76,136.2,39.4,118.92,20.64,238.36,20.64,238.36Z"/><path class="cls-3" d="M41.76,253.67l223.88-77.61s-31.79-152.58-69-63.76c-52.49,125.22-81.55,49.36-101.73,39.2C60.53,134.23,41.76,253.67,41.76,253.67Z"/><path class="cls-4" d="M245.91.19a2,2,0,0,0-2,.19L196,28.06a6.08,6.08,0,0,0-2.76,4.78l.07,25.69a2,2,0,0,0,.81,1.78l2.06,1.2a2,2,0,0,1-.81-1.78L195.3,34a6.08,6.08,0,0,1,2.76-4.78L246,1.58a2,2,0,0,1,2-.19Z"/><polygon class="cls-4" points="215.8 48.74 220.08 53.56 222.14 54.76 217.86 49.94 215.8 48.74"/><path class="cls-5" d="M246,1.58c1.53-.88,2.77-.18,2.78,1.58l.07,25.69a6.09,6.09,0,0,1-2.76,4.79L226.22,45.11l-4.08,9.65-4.29-4.82L198.15,61.32c-1.53.88-2.77.17-2.78-1.59L195.3,34a6.08,6.08,0,0,1,2.76-4.78Z"/><path class="cls-4" d="M112.29,68.39a2,2,0,0,0-2,.19L62.38,96.25A6.08,6.08,0,0,0,59.62,101l.07,25.69a2,2,0,0,0,.81,1.78l2.06,1.2a2,2,0,0,1-.81-1.78l-.07-25.69a6.08,6.08,0,0,1,2.76-4.78l47.93-27.67a2,2,0,0,1,2-.19Z"/><polygon class="cls-4" points="82.18 116.94 86.46 121.76 88.53 122.96 84.24 118.14 82.18 116.94"/><path class="cls-5" d="M112.38,69.78c1.53-.88,2.77-.18,2.78,1.58l.07,25.69a6.09,6.09,0,0,1-2.76,4.79L92.6,113.31,88.53,123l-4.29-4.82L64.54,129.52c-1.53.88-2.77.17-2.78-1.59l-.07-25.69a6.08,6.08,0,0,1,2.76-4.78Z"/><path class="cls-6" d="M221.68,63.84c-.35.2-.64,0-.64-.37a1.41,1.41,0,0,1,.64-1.11c.35-.2.64,0,.64.37A1.41,1.41,0,0,1,221.68,63.84Z"/><path class="cls-6" d="M221.68,75.34c-.35.2-.64,0-.64-.37a1.41,1.41,0,0,1,.64-1.11c.35-.2.64,0,.64.37A1.41,1.41,0,0,1,221.68,75.34Z"/><path class="cls-6" d="M221.68,86.85c-.35.2-.64,0-.64-.37a1.41,1.41,0,0,1,.64-1.11c.35-.2.64,0,.64.37A1.41,1.41,0,0,1,221.68,86.85Z"/><path class="cls-6" d="M221.68,98.35c-.35.2-.64,0-.64-.37a1.41,1.41,0,0,1,.64-1.11c.35-.2.64,0,.64.37A1.41,1.41,0,0,1,221.68,98.35Z"/><path class="cls-6" d="M221.68,109.85c-.35.2-.64,0-.64-.37a1.41,1.41,0,0,1,.64-1.11c.35-.2.64,0,.64.37A1.41,1.41,0,0,1,221.68,109.85Z"/><path class="cls-6" d="M221.68,121.36c-.35.2-.64,0-.64-.37a1.41,1.41,0,0,1,.64-1.11c.35-.2.64,0,.64.37A1.41,1.41,0,0,1,221.68,121.36Z"/><path class="cls-6" d="M221.68,132.86c-.35.2-.64,0-.64-.37a1.41,1.41,0,0,1,.64-1.11c.35-.2.64,0,.64.37A1.41,1.41,0,0,1,221.68,132.86Z"/><path class="cls-6" d="M221.68,144.37c-.35.2-.64,0-.64-.37a1.41,1.41,0,0,1,.64-1.11c.35-.2.64,0,.64.37A1.41,1.41,0,0,1,221.68,144.37Z"/><path class="cls-6" d="M221.68,155.87c-.35.2-.64,0-.64-.37a1.41,1.41,0,0,1,.64-1.11c.35-.2.64,0,.64.37A1.41,1.41,0,0,1,221.68,155.87Z"/><path class="cls-6" d="M221.68,167.38c-.35.2-.64,0-.64-.37a1.41,1.41,0,0,1,.64-1.11c.35-.2.64,0,.64.37A1.41,1.41,0,0,1,221.68,167.38Z"/><path class="cls-6" d="M221.68,178.88c-.35.2-.64,0-.64-.37a1.41,1.41,0,0,1,.64-1.11c.35-.2.64,0,.64.37A1.41,1.41,0,0,1,221.68,178.88Z"/><path class="cls-6" d="M221.68,190.38c-.35.2-.64,0-.64-.37a1.41,1.41,0,0,1,.64-1.11c.35-.2.64,0,.64.37A1.41,1.41,0,0,1,221.68,190.38Z"/><path class="cls-6" d="M221.68,201.89c-.35.2-.64,0-.64-.37a1.41,1.41,0,0,1,.64-1.11c.35-.2.64,0,.64.37A1.41,1.41,0,0,1,221.68,201.89Z"/><path class="cls-6" d="M88.58,135.12c-.35.2-.64,0-.64-.37a1.41,1.41,0,0,1,.64-1.11c.35-.2.64,0,.64.37A1.41,1.41,0,0,1,88.58,135.12Z"/><path class="cls-6" d="M88.58,146.63c-.35.2-.64,0-.64-.37a1.41,1.41,0,0,1,.64-1.11c.35-.2.64,0,.64.37A1.41,1.41,0,0,1,88.58,146.63Z"/><path class="cls-6" d="M88.58,158.13c-.35.2-.64,0-.64-.37a1.41,1.41,0,0,1,.64-1.11c.35-.2.64,0,.64.37A1.41,1.41,0,0,1,88.58,158.13Z"/><path class="cls-6" d="M88.58,169.64c-.35.2-.64,0-.64-.37a1.41,1.41,0,0,1,.64-1.11c.35-.2.64,0,.64.37A1.41,1.41,0,0,1,88.58,169.64Z"/><path class="cls-6" d="M88.58,181.14c-.35.2-.64,0-.64-.37a1.41,1.41,0,0,1,.64-1.11c.35-.2.64,0,.64.37A1.41,1.41,0,0,1,88.58,181.14Z"/><path class="cls-6" d="M88.58,192.65c-.35.2-.64,0-.64-.37a1.41,1.41,0,0,1,.64-1.11c.35-.2.64,0,.64.37A1.41,1.41,0,0,1,88.58,192.65Z"/><path class="cls-6" d="M88.58,204.15c-.35.2-.64,0-.64-.37a1.41,1.41,0,0,1,.64-1.11c.35-.2.64,0,.64.37A1.41,1.41,0,0,1,88.58,204.15Z"/><path class="cls-6" d="M88.58,215.65c-.35.2-.64,0-.64-.37a1.41,1.41,0,0,1,.64-1.11c.35-.2.64,0,.64.37A1.41,1.41,0,0,1,88.58,215.65Z"/><path class="cls-6" d="M88.58,227.16c-.35.2-.64,0-.64-.37a1.41,1.41,0,0,1,.64-1.11c.35-.2.64,0,.64.37A1.41,1.41,0,0,1,88.58,227.16Z"/><path class="cls-6" d="M168.67,151.52c-.35.2-.64,0-.64-.37a1.41,1.41,0,0,1,.64-1.11c.35-.2.64,0,.64.37A1.41,1.41,0,0,1,168.67,151.52Z"/><path class="cls-6" d="M168.67,163c-.35.2-.64,0-.64-.37a1.41,1.41,0,0,1,.64-1.11c.35-.2.64,0,.64.37A1.41,1.41,0,0,1,168.67,163Z"/><path class="cls-6" d="M168.67,174.53c-.35.2-.64,0-.64-.37a1.41,1.41,0,0,1,.64-1.11c.35-.2.64,0,.64.37A1.41,1.41,0,0,1,168.67,174.53Z"/><path class="cls-6" d="M168.67,186c-.35.2-.64,0-.64-.37a1.41,1.41,0,0,1,.64-1.11c.35-.2.64,0,.64.37A1.41,1.41,0,0,1,168.67,186Z"/><path class="cls-6" d="M168.67,197.54c-.35.2-.64,0-.64-.37a1.41,1.41,0,0,1,.64-1.11c.35-.2.64,0,.64.37A1.41,1.41,0,0,1,168.67,197.54Z"/><path class="cls-6" d="M168.67,209c-.35.2-.64,0-.64-.37a1.41,1.41,0,0,1,.64-1.11c.35-.2.64,0,.64.37A1.41,1.41,0,0,1,168.67,209Z"/><path class="cls-7" d="M82.31,106.34v1.2l-4.88,2.82v-.95l2.63-4.4a6.92,6.92,0,0,0,.6-1.21,2.54,2.54,0,0,0,.16-.82c0-.36-.1-.57-.31-.64a1.24,1.24,0,0,0-.92.25A3.83,3.83,0,0,0,78,104.29l-.86-.27a6.09,6.09,0,0,1,1-1.54,6.22,6.22,0,0,1,1.47-1.18,2.2,2.2,0,0,1,1.72-.4c.43.15.64.56.64,1.23a4.09,4.09,0,0,1-.23,1.3,9.46,9.46,0,0,1-.87,1.75l-1.77,3Z"/><path class="cls-7" d="M84.43,106a1.36,1.36,0,0,1-1-.79,4.15,4.15,0,0,1-.36-1.91,7.42,7.42,0,0,1,.36-2.32,6.52,6.52,0,0,1,1-1.92,4.8,4.8,0,0,1,1.42-1.28,2.19,2.19,0,0,1,1.42-.36,1.35,1.35,0,0,1,1,.78,4.16,4.16,0,0,1,.36,1.91,7.42,7.42,0,0,1-.36,2.32,6.48,6.48,0,0,1-1,1.92,4.81,4.81,0,0,1-1.42,1.29A2.15,2.15,0,0,1,84.43,106ZM87,103.05a5.5,5.5,0,0,0,.41-2.26A2.73,2.73,0,0,0,87,99q-.41-.44-1.12,0a2.77,2.77,0,0,0-1.11,1.32,5.52,5.52,0,0,0-.41,2.26,2.73,2.73,0,0,0,.41,1.78q.41.44,1.11,0A2.78,2.78,0,0,0,87,103.05Z"/><path class="cls-7" d="M91.79,94.42v7.65l-1.23.71V96.32l-1.4.81V95.94Z"/><path class="cls-7" d="M98.29,95a1.33,1.33,0,0,1,.28.93,3.33,3.33,0,0,1-.34,1.42,5,5,0,0,1-1,1.35,6.55,6.55,0,0,1-1.43,1.1,3.89,3.89,0,0,1-1.42.54,1.08,1.08,0,0,1-.94-.26,1.41,1.41,0,0,1-.33-1,3.06,3.06,0,0,1,.27-1.25,4.49,4.49,0,0,1,.79-1.19.77.77,0,0,1-.61-.31,1.36,1.36,0,0,1-.21-.82,3,3,0,0,1,.31-1.3A4.65,4.65,0,0,1,94.57,93a5.73,5.73,0,0,1,1.29-1,3.41,3.41,0,0,1,1.29-.49,1,1,0,0,1,.87.24,1.26,1.26,0,0,1,.31.94,2.77,2.77,0,0,1-.22,1.07,4.1,4.1,0,0,1-.62,1A1,1,0,0,1,98.29,95Zm-1.36,2.73a1.94,1.94,0,0,0,.4-1.13c0-.38-.13-.6-.4-.67a1.56,1.56,0,0,0-1.08.29,3.27,3.27,0,0,0-1.07.95,1.93,1.93,0,0,0-.39,1.12c0,.38.13.61.39.68a1.52,1.52,0,0,0,1.07-.29A3.35,3.35,0,0,0,96.94,97.76Zm-2-3.87a1.71,1.71,0,0,0-.34,1q0,.49.34.59a1.26,1.26,0,0,0,.91-.24,2.84,2.84,0,0,0,.93-.83,1.69,1.69,0,0,0,.34-1c0-.34-.12-.54-.35-.6a1.33,1.33,0,0,0-.92.25A2.82,2.82,0,0,0,94.94,93.89Z"/><path class="cls-7" d="M215,38.56v1.2l-4.88,2.82v-1l2.63-4.4a7,7,0,0,0,.6-1.21,2.54,2.54,0,0,0,.16-.82q0-.54-.31-.64a1.23,1.23,0,0,0-.92.25,3.84,3.84,0,0,0-1.55,1.69l-.86-.27a6.1,6.1,0,0,1,1-1.54,6.22,6.22,0,0,1,1.47-1.18,2.2,2.2,0,0,1,1.72-.4q.64.22.64,1.23a4.09,4.09,0,0,1-.23,1.3,9.46,9.46,0,0,1-.87,1.75l-1.77,3Z"/><path class="cls-7" d="M217.14,38.18a1.35,1.35,0,0,1-1-.79,4.15,4.15,0,0,1-.36-1.91,7.43,7.43,0,0,1,.36-2.32,6.53,6.53,0,0,1,1-1.92A4.79,4.79,0,0,1,218.56,30a2.18,2.18,0,0,1,1.42-.36,1.35,1.35,0,0,1,1,.78,4.16,4.16,0,0,1,.36,1.91,7.42,7.42,0,0,1-.36,2.32,6.46,6.46,0,0,1-1,1.92,4.81,4.81,0,0,1-1.42,1.29A2.15,2.15,0,0,1,217.14,38.18Zm2.54-2.91A5.49,5.49,0,0,0,220.1,33a2.72,2.72,0,0,0-.41-1.78q-.41-.44-1.12,0a2.77,2.77,0,0,0-1.11,1.32,5.52,5.52,0,0,0-.41,2.26,2.73,2.73,0,0,0,.41,1.78q.41.44,1.11,0A2.78,2.78,0,0,0,219.68,35.27Z"/><path class="cls-7" d="M227,31.64v1.2l-4.88,2.82v-1l2.63-4.4a6.92,6.92,0,0,0,.6-1.2,2.55,2.55,0,0,0,.16-.82q0-.54-.31-.64a1.24,1.24,0,0,0-.92.25,3.85,3.85,0,0,0-1.55,1.69l-.86-.27a6.06,6.06,0,0,1,1-1.54,6.25,6.25,0,0,1,1.47-1.18,2.2,2.2,0,0,1,1.72-.4c.43.15.64.56.64,1.23a4.08,4.08,0,0,1-.23,1.3,9.53,9.53,0,0,1-.87,1.75l-1.77,3Z"/><path class="cls-7" d="M229.13,31.26a1.35,1.35,0,0,1-1-.79,4.15,4.15,0,0,1-.36-1.91,7.43,7.43,0,0,1,.36-2.32,6.52,6.52,0,0,1,1-1.92A4.76,4.76,0,0,1,230.55,23a2.18,2.18,0,0,1,1.42-.36,1.35,1.35,0,0,1,1,.78,4.15,4.15,0,0,1,.36,1.91A7.41,7.41,0,0,1,233,27.7a6.47,6.47,0,0,1-1,1.93,4.84,4.84,0,0,1-1.42,1.29A2.16,2.16,0,0,1,229.13,31.26Zm2.54-2.91a5.5,5.5,0,0,0,.41-2.26,2.73,2.73,0,0,0-.41-1.78q-.41-.44-1.12,0a2.77,2.77,0,0,0-1.11,1.32,5.52,5.52,0,0,0-.41,2.26,2.73,2.73,0,0,0,.41,1.78q.41.44,1.11,0A2.78,2.78,0,0,0,231.67,28.35Z"/></g></g></svg>