<svg xmlns="http://www.w3.org/2000/svg" xmlns:xlink="http://www.w3.org/1999/xlink" viewBox="0 0 225.1 289.95"><defs><style>.cls-1{isolation:isolate;}.cls-2,.cls-5{opacity:0.46;}.cls-3{fill:url(#_ÂÁ_Ï_ÌÌ_È_ËÂÌÚ_128);}.cls-4{fill:#ced0dd;}.cls-5{fill:url(#_ÂÁ_Ï_ÌÌ_È_ËÂÌÚ_128-2);}.cls-6{fill:#ed345a;}.cls-7{opacity:0.34;mix-blend-mode:multiply;}.cls-8{opacity:0.8;fill:url(#_ÂÁ_Ï_ÌÌ_È_ËÂÌÚ_72);}.cls-10,.cls-11,.cls-12,.cls-13,.cls-9{opacity:0.67;mix-blend-mode:screen;}.cls-9{fill:url(#_ÂÁ_Ï_ÌÌ_È_ËÂÌÚ_117);}.cls-10{fill:url(#_ÂÁ_Ï_ÌÌ_È_ËÂÌÚ_117-2);}.cls-11{fill:url(#_ÂÁ_Ï_ÌÌ_È_ËÂÌÚ_117-3);}.cls-12{fill:url(#_ÂÁ_Ï_ÌÌ_È_ËÂÌÚ_117-4);}.cls-13{fill:url(#_ÂÁ_Ï_ÌÌ_È_ËÂÌÚ_117-5);}</style><linearGradient id="_ÂÁ_Ï_ÌÌ_È_ËÂÌÚ_128" x1="105.96" y1="243.19" x2="105.96" y2="15.27" gradientTransform="matrix(-1, 0, 0, 1, 225.1, 0)" gradientUnits="userSpaceOnUse"><stop offset="0" stop-color="#35386e"/><stop offset="0.2" stop-color="#414c85"/><stop offset="0.53" stop-color="#5266a4"/><stop offset="0.81" stop-color="#5c76b7"/><stop offset="1" stop-color="#607cbe"/></linearGradient><linearGradient id="_ÂÁ_Ï_ÌÌ_È_ËÂÌÚ_128-2" x1="140.8" y1="241.83" x2="78.44" y2="8.92" xlink:href="#_ÂÁ_Ï_ÌÌ_È_ËÂÌÚ_128"/><linearGradient id="_ÂÁ_Ï_ÌÌ_È_ËÂÌÚ_72" x1="186.36" y1="790.4" x2="453.24" y2="790.4" gradientTransform="matrix(-0.86, -0.57, -0.05, 1.12, 431.36, -585.29)" gradientUnits="userSpaceOnUse"><stop offset="0" stop-color="#a52e59"/><stop offset="0.21" stop-color="#ac2f59"/><stop offset="0.5" stop-color="#bf3059"/><stop offset="0.85" stop-color="#de335a"/><stop offset="1" stop-color="#ed345a"/></linearGradient><linearGradient id="_ÂÁ_Ï_ÌÌ_È_ËÂÌÚ_117" x1="202.77" y1="78.71" x2="202.77" y2="184.14" gradientTransform="matrix(-1, 0, 0, 1, 225.1, 0)" gradientUnits="userSpaceOnUse"><stop offset="0" stop-color="#ced0dd"/><stop offset="0.41" stop-color="#6b6c73"/><stop offset="0.75" stop-color="#1e1e20"/><stop offset="0.9"/></linearGradient><linearGradient id="_ÂÁ_Ï_ÌÌ_È_ËÂÌÚ_117-2" x1="158.46" y1="105.7" x2="158.46" y2="211.13" xlink:href="#_ÂÁ_Ï_ÌÌ_È_ËÂÌÚ_117"/><linearGradient id="_ÂÁ_Ï_ÌÌ_È_ËÂÌÚ_117-3" x1="112.43" y1="160.07" x2="112.43" y2="229.77" xlink:href="#_ÂÁ_Ï_ÌÌ_È_ËÂÌÚ_117"/><linearGradient id="_ÂÁ_Ï_ÌÌ_È_ËÂÌÚ_117-4" x1="65.6" y1="183.67" x2="65.6" y2="258.25" xlink:href="#_ÂÁ_Ï_ÌÌ_È_ËÂÌÚ_117"/><linearGradient id="_ÂÁ_Ï_ÌÌ_È_ËÂÌÚ_117-5" x1="25.1" y1="228.26" x2="25.1" y2="276.6" xlink:href="#_ÂÁ_Ï_ÌÌ_È_ËÂÌÚ_117"/></defs><title>graph2</title><g class="cls-1"><g id="Layer_2" data-name="Layer 2"><g id="_ÎÓÈ_1" data-name="—ÎÓÈ_1"><g class="cls-2"><path class="cls-3" d="M24.79,154.22,213.47,263.16c5.89,3.4,10.66-.21,10.66-8.06V130.58c0-7.85-4.77-17-10.66-20.36L24.79,1.28c-5.89-3.4-10.66.21-10.66,8.06V133.86C14.13,141.71,18.91,150.82,24.79,154.22Z"/></g><path class="cls-4" d="M203.5,289.73a2.53,2.53,0,0,1-1-.95,2.7,2.7,0,0,1-.33-1.36V284.5l2.07,1.2v.69l-1.36-.79v2.29a1.23,1.23,0,0,0,.6,1.16.57.57,0,0,0,.76-.07l.41.8a.66.66,0,0,1-.51.18A1.49,1.49,0,0,1,203.5,289.73Z"/><path class="cls-4" d="M198.37,286.71l-.75-.43,1.73-3.42.7.4,1.72,5.42-.73-.42-.38-1.24-1.92-1.11Zm2.06-.48-.72-2.35-.72,1.52Z"/><path class="cls-4" d="M194.39,280v3l2.11-1.78.59.34V286l-.71-.41v-3l-2.11,1.78-.59-.34v-4.42Z"/><path class="cls-4" d="M161.63,261.76v-.69l2.8,1.61v4.42l-.71-.41V265l-1.85-1.07v-.7l1.85,1.07V263Z"/><path class="cls-4" d="M160.17,264v-1.22l-1.85-1.07V261l1.85,1.07v-1.15l-2.08-1.2V259l2.8,1.61v4.42L158,263.4v-.69Z"/><path class="cls-4" d="M154.45,259a2.17,2.17,0,0,1-.36-.6,1.76,1.76,0,0,1-.13-.66c0-.36.12-.57.37-.63a1.53,1.53,0,0,1,1,.3l1.8,1v4.42l-1.9-1.1a3.49,3.49,0,0,1-1.12-1,1.88,1.88,0,0,1-.38-1.11.79.79,0,0,1,.19-.59A.54.54,0,0,1,154.45,259Zm1-.9a.91.91,0,0,0-.57-.17c-.13,0-.2.14-.2.34a.93.93,0,0,0,.2.57,1.83,1.83,0,0,0,.57.49l1,.58v-1.22Zm-.14,3.05,1.15.66v-1.28l-1.15-.66q-.83-.48-.83.16A1.34,1.34,0,0,0,155.3,261.19Z"/><path class="cls-4" d="M114.31,238.17v-4.42l.58.34,1.49,3.8,1.52-2.05.59.34v4.42l-.68-.39v-2.89L116.57,239l-.32-.18L115,235.63v2.93Z"/><path class="cls-4" d="M110.36,235.89l-.75-.43,1.73-3.42.7.4,1.72,5.42-.73-.42-.38-1.24-1.92-1.11Zm2.06-.48-.72-2.35-.72,1.52Z"/><path class="cls-4" d="M105.8,233.26l.88-.94a3,3,0,0,1-.61-.89,2.43,2.43,0,0,1-.21-1,1.13,1.13,0,0,1,.2-.73.64.64,0,0,1,.57-.22,2.06,2.06,0,0,1,.87.31l1.58.91v4.42l-.71-.41v-1.29l-.86-.5-.15-.09-.78.84Zm.78-2.4a1.43,1.43,0,0,0,.24.79,2,2,0,0,0,.71.64l.83.48V231l-.83-.48a.91.91,0,0,0-.71-.18C106.66,230.41,106.58,230.58,106.58,230.86Z"/><path class="cls-4" d="M69.28,212.17l-.75-.43,1.73-3.43.7.41,1.72,5.42-.73-.42-.38-1.24-1.92-1.11Zm2.06-.48-.72-2.35-.72,1.52Z"/><path class="cls-4" d="M66.41,206.1,68,207v4.42l-.71-.41v-1.28l-.86-.5a3.66,3.66,0,0,1-.87-.69,3,3,0,0,1-.57-.87,2.46,2.46,0,0,1-.2-1A1.13,1.13,0,0,1,65,206a.63.63,0,0,1,.57-.22A2.09,2.09,0,0,1,66.41,206.1Zm0,2.47.83.48v-1.76l-.83-.48a.91.91,0,0,0-.71-.18c-.16.06-.24.23-.24.51a1.41,1.41,0,0,0,.24.79A2,2,0,0,0,66.45,208.57Z"/><path class="cls-4" d="M60.74,207.25l.88-.94a3,3,0,0,1-.61-.89,2.42,2.42,0,0,1-.21-1,1.13,1.13,0,0,1,.2-.73.64.64,0,0,1,.57-.22,2.06,2.06,0,0,1,.87.31l1.58.91v4.42l-.71-.41v-1.29l-.86-.5-.15-.09-.78.84Zm.78-2.4a1.43,1.43,0,0,0,.24.79,2,2,0,0,0,.71.64l.83.48V205l-.83-.48a.91.91,0,0,0-.71-.18C61.61,204.39,61.53,204.56,61.53,204.85Z"/><path class="cls-4" d="M24.46,186.3v-4.42l.58.34,1.49,3.8L28.07,184l.59.34v4.42l-.68-.39v-2.89l-1.26,1.66-.32-.18-1.26-3.15v2.93Z"/><path class="cls-4" d="M20.51,184l-.75-.43,1.73-3.42.7.4L23.91,186l-.73-.42-.38-1.24-1.92-1.11Zm2.06-.48-.72-2.35-.72,1.52Z"/><path class="cls-4" d="M16.3,177.16l.7.4,1.13,2.81,1.12-1.51.76.44-1.5,2v1.55l-.71-.41v-1.56Z"/><path class="cls-5" d="M18.23,158.22,206.92,267.16c5.89,3.4,10.66-.21,10.66-8.06V134.58c0-7.85-4.77-17-10.66-20.36L18.23,5.28c-5.89-3.4-10.66.21-10.66,8.06V137.86C7.57,145.71,12.35,154.82,18.23,158.22Z"/><path class="cls-6" d="M7.4,38.46c6.9,7.53,14.81,12,21.68,12.38l10.59.53c11.3.56,24.86,11.11,33.76,26.26l31.5,53.65c8.48,14.43,21.53,23.82,31.75,22.81,11.53-1.13,25.9,8.93,35.76,25l13.05,21.31c7.58,12.38,18.6,20.94,28.07,21.79l11.54,1v4.91l-10-.9a29.11,29.11,0,0,1-11.75-4c-7.45-4.3-14.81-11.71-20.49-21l-13.05-21.31c-8.58-14-21.09-22.77-31.13-21.79-11.73,1.15-26.73-9.62-36.46-26.2L70.69,79.29C63,66.1,51.14,56.91,41.3,56.42L30.71,55.9c-7.89-.39-17-5.57-24.9-14.22L0,35.34v-5Z"/><g class="cls-7"><path class="cls-8" d="M7.57,28.25l2.37,2.58c6.9,7.53,14.8,12,21.66,12.38l10.58.53C53.47,44.3,67,54.85,75.92,70l31.48,53.65c8.47,14.43,21.51,23.82,31.72,22.81,11.52-1.13,25.88,8.93,35.73,25l13,21.31c7.58,12.38,18.58,20.94,28,21.79l1.81.16v4.91l-.29,0a29.07,29.07,0,0,1-11.74-4c-7.44-4.3-14.8-11.71-20.47-21l-13-21.31c-8.58-14-21.08-22.77-31.11-21.79-11.73,1.15-26.71-9.62-36.44-26.2L73.18,71.66C65.44,58.47,53.64,49.28,43.81,48.8l-10.58-.53c-7.89-.39-17-5.57-24.88-14.22l-.78-.85Z"/></g><polygon class="cls-9" points="22.65 178.07 21.99 177.69 21.99 54.35 22.65 54.73 22.65 178.07"/><polygon class="cls-10" points="66.96 197.23 66.31 196.85 66.31 73.51 66.96 73.89 66.96 197.23"/><polygon class="cls-11" points="112.99 228.88 112.33 228.5 112.33 147.08 112.99 147.46 112.99 228.88"/><polygon class="cls-12" points="159.83 256.42 159.17 256.04 159.17 168.91 159.83 169.29 159.83 256.42"/><polygon class="cls-13" points="200.33 278.53 199.67 278.15 199.67 221.81 200.33 222.19 200.33 278.53"/><path class="cls-4" d="M199.59,222.83a7.13,7.13,0,0,1-3.27-5.66,2.55,2.55,0,0,1,4.09-2.36,7.13,7.13,0,0,1,3.27,5.66,2.82,2.82,0,0,1-1.25,2.56,2.28,2.28,0,0,1-1.15.3A3.43,3.43,0,0,1,199.59,222.83ZM198.4,216a1.27,1.27,0,0,0-.42,1.13,5.48,5.48,0,0,0,2.44,4.22.95.95,0,0,0,1.61-.93,5.48,5.48,0,0,0-2.44-4.22,1.8,1.8,0,0,0-.86-.28A.66.66,0,0,0,198.4,216Z"/><path class="cls-4" d="M159.09,169.84a7.12,7.12,0,0,1-3.27-5.66,2.55,2.55,0,0,1,4.09-2.36,7.12,7.12,0,0,1,3.27,5.66,2.82,2.82,0,0,1-1.25,2.56,2.28,2.28,0,0,1-1.15.3A3.42,3.42,0,0,1,159.09,169.84Zm-1.19-6.79a1.27,1.27,0,0,0-.42,1.13,5.48,5.48,0,0,0,2.44,4.22.95.95,0,0,0,1.61-.93,5.48,5.48,0,0,0-2.44-4.22,1.8,1.8,0,0,0-.86-.28A.65.65,0,0,0,157.9,163.06Z"/><path class="cls-4" d="M112.25,148.25A7.13,7.13,0,0,1,109,142.6a2.55,2.55,0,0,1,4.1-2.36,7.13,7.13,0,0,1,3.27,5.66,2.82,2.82,0,0,1-1.25,2.56,2.28,2.28,0,0,1-1.15.3A3.42,3.42,0,0,1,112.25,148.25Zm-1.19-6.79a1.27,1.27,0,0,0-.42,1.13,5.48,5.48,0,0,0,2.44,4.22.95.95,0,0,0,1.61-.93,5.48,5.48,0,0,0-2.44-4.22,1.8,1.8,0,0,0-.86-.28A.66.66,0,0,0,111.06,141.47Z"/><path class="cls-4" d="M66.22,74.37A7.12,7.12,0,0,1,63,68.71,2.55,2.55,0,0,1,67,66.35,7.12,7.12,0,0,1,70.31,72a2.82,2.82,0,0,1-1.25,2.56,2.28,2.28,0,0,1-1.15.3A3.42,3.42,0,0,1,66.22,74.37ZM65,67.58a1.27,1.27,0,0,0-.42,1.13A5.48,5.48,0,0,0,67,72.94.95.95,0,0,0,68.66,72a5.48,5.48,0,0,0-2.44-4.22,1.8,1.8,0,0,0-.86-.28A.66.66,0,0,0,65,67.58Z"/><path class="cls-4" d="M21.91,55.56a7.12,7.12,0,0,1-3.27-5.66,2.82,2.82,0,0,1,1.25-2.56,2.83,2.83,0,0,1,2.85.2A7.12,7.12,0,0,1,26,53.2a2.82,2.82,0,0,1-1.25,2.56,2.29,2.29,0,0,1-1.15.3A3.42,3.42,0,0,1,21.91,55.56Zm-1.19-6.79a1.27,1.27,0,0,0-.42,1.13,5.48,5.48,0,0,0,2.44,4.22,1.27,1.27,0,0,0,1.19.2,1.27,1.27,0,0,0,.42-1.13A5.48,5.48,0,0,0,21.91,49a1.8,1.8,0,0,0-.86-.28A.66.66,0,0,0,20.72,48.77Z"/><path class="cls-4" d="M196.53,129.56,197.9,134l1.35-2.87,1.11.64-1.91,4-1-.58L195.51,129Z"/><path class="cls-4" d="M194.6,129.08a1.23,1.23,0,0,1-.44-.44,1.09,1.09,0,0,1-.17-.57.33.33,0,0,1,.17-.34.49.49,0,0,1,.44.08,1.22,1.22,0,0,1,.44.44,1.06,1.06,0,0,1,.17.55.35.35,0,0,1-.17.35A.47.47,0,0,1,194.6,129.08Zm.49,4.76-1-.57v-3.92l1,.57Z"/><path class="cls-4" d="M190.7,127.38l1,3.23.94-2.13,1,.59-1.43,3.1-1-.59-1.43-4.75Z"/><path class="cls-4" d="M188,125.78a4.77,4.77,0,0,1,.8.59,4.51,4.51,0,0,1,.67.73l-.35.59a3.13,3.13,0,0,0-.45-.52,2.84,2.84,0,0,0-.53-.41c-.26-.15-.46-.2-.59-.14s-.2.21-.2.46l.78.45a3.31,3.31,0,0,1,1.1,1,1.86,1.86,0,0,1,.36,1.07.8.8,0,0,1-.15.53.51.51,0,0,1-.44.17,1.56,1.56,0,0,1-.68-.24,2.28,2.28,0,0,1-1-1.14v.49l-.92-.53v-2.24c0-.58.14-.94.42-1.07A1.42,1.42,0,0,1,188,125.78Zm.08,3.32a.57.57,0,0,0,.41.11c.1,0,.15-.12.15-.26q0-.46-.61-.81l-.68-.39v.4a1.51,1.51,0,0,0,.28.56A1.59,1.59,0,0,0,188.1,129.1Z"/><path class="cls-4" d="M181.09,121.77a2.9,2.9,0,0,1,.7.57,3.34,3.34,0,0,1,.53.78.57.57,0,0,1,.47-.21,1.38,1.38,0,0,1,.65.21,2.63,2.63,0,0,1,.6.48,2.93,2.93,0,0,1,.46.65v-.45l.94.54v3.92l-1-.57v-2a1.85,1.85,0,0,0-.2-.89,1.42,1.42,0,0,0-.54-.57q-.64-.37-.64.55v2.07l-1-.57v-2a1.84,1.84,0,0,0-.2-.89,1.42,1.42,0,0,0-.55-.58q-.31-.18-.48,0c-.11.09-.17.29-.17.6v2.07l-1-.57V122.7q0-.87.38-1.09A1,1,0,0,1,181.09,121.77Z"/><path class="cls-4" d="M176.31,119.07V121a1.87,1.87,0,0,0,.21.92,1.51,1.51,0,0,0,.57.59q.69.4.69-.55v-2l1,.57v2.22q0,.88-.39,1.09a1.08,1.08,0,0,1-1.06-.17,2.51,2.51,0,0,1-.59-.47,3.13,3.13,0,0,1-.47-.66V123l-.93-.54V118.5Z"/><path class="cls-4" d="M173.2,121.26a4,4,0,0,1-.86-.65,2.81,2.81,0,0,1-.55-.76,1.75,1.75,0,0,1-.19-.76q0-.43.2-.56a.58.58,0,0,1,.46-.06,5.3,5.3,0,0,1,.68.22,2.75,2.75,0,0,0,.54.17c.11,0,.17,0,.17-.16a.59.59,0,0,0-.16-.35,2.06,2.06,0,0,0-1.45-.65l-.33-1a1.44,1.44,0,0,1,.59.09,3.69,3.69,0,0,1,.72.32,3.88,3.88,0,0,1,.84.65,2.87,2.87,0,0,1,.54.76,1.8,1.8,0,0,1,.19.77q0,.45-.2.57a.6.6,0,0,1-.47.06,4.85,4.85,0,0,1-.69-.23,2.33,2.33,0,0,0-.52-.18c-.11,0-.17,0-.17.14s.21.48.63.72a2.49,2.49,0,0,0,.63.26,1.39,1.39,0,0,0,.55,0l.33,1a1.54,1.54,0,0,1-.64-.07A3.55,3.55,0,0,1,173.2,121.26Z"/><path class="cls-4" d="M165.75,114.95A1.63,1.63,0,0,1,166,114a.77.77,0,0,1,.63-.34,1.7,1.7,0,0,1,.9.27,3.43,3.43,0,0,1,.93.79,4,4,0,0,1,.65,1.1,3.19,3.19,0,0,1,.24,1.18,1.49,1.49,0,0,1-.24.9.81.81,0,0,1-.68.32,2.06,2.06,0,0,1-1-.33,3.55,3.55,0,0,1-1.4-1.44l.52-.35a2.74,2.74,0,0,0,.38.51,2.21,2.21,0,0,0,.47.36.91.91,0,0,0,.64.16.45.45,0,0,0,.33-.39l-2.57-1.48Q165.75,115,165.75,114.95Zm1.76-.16a.64.64,0,0,0-.56-.1.5.5,0,0,0-.28.43l1.67,1a1.78,1.78,0,0,0-.28-.76A1.66,1.66,0,0,0,167.51,114.79Z"/><path class="cls-4" d="M162.45,111.07v.5q.39-.34,1.13.09a3.27,3.27,0,0,1,.86.73,3.81,3.81,0,0,1,.62,1,3,3,0,0,1,.23,1.12,1.4,1.4,0,0,1-.23.86.77.77,0,0,1-.62.31,1.64,1.64,0,0,1-.86-.26,2.78,2.78,0,0,1-1.07-1.11v.17a1.81,1.81,0,0,0,.24.95,2,2,0,0,0,.76.7,2.25,2.25,0,0,0,.66.26,1,1,0,0,0,.54,0l.39,1a1.3,1.3,0,0,1-.73,0,4.23,4.23,0,0,1-2.36-1.75,3.57,3.57,0,0,1-.49-1.89v-3.27Zm.93,3.34a.69.69,0,0,0,.64.11c.17-.08.25-.26.25-.55a1.59,1.59,0,0,0-.25-.84,1.82,1.82,0,0,0-.64-.64.69.69,0,0,0-.64-.1q-.25.12-.25.55a1.59,1.59,0,0,0,.25.84A1.79,1.79,0,0,0,163.38,114.41Z"/><path class="cls-4" d="M157.21,110a1.64,1.64,0,0,1,.23-.94.77.77,0,0,1,.63-.34,1.7,1.7,0,0,1,.9.27,3.43,3.43,0,0,1,.93.79,4,4,0,0,1,.65,1.1,3.19,3.19,0,0,1,.24,1.18,1.49,1.49,0,0,1-.24.9.81.81,0,0,1-.68.32,2.06,2.06,0,0,1-1-.33,3.55,3.55,0,0,1-1.4-1.44l.52-.35a2.75,2.75,0,0,0,.38.51,2.22,2.22,0,0,0,.47.36.91.91,0,0,0,.64.16.45.45,0,0,0,.33-.39l-2.57-1.48C157.22,110.14,157.21,110,157.21,110Zm1.76-.16a.64.64,0,0,0-.56-.1.5.5,0,0,0-.28.43l1.67,1a1.78,1.78,0,0,0-.28-.76A1.66,1.66,0,0,0,159,109.86Z"/><path class="cls-4" d="M155.35,111a4.08,4.08,0,0,1-.86-.66,2.85,2.85,0,0,1-.55-.76,1.75,1.75,0,0,1-.19-.76q0-.43.2-.56a.58.58,0,0,1,.46-.07,5.82,5.82,0,0,1,.68.22,2.84,2.84,0,0,0,.54.18c.11,0,.17,0,.17-.16a.58.58,0,0,0-.16-.35,2,2,0,0,0-1.45-.65l-.33-1a1.49,1.49,0,0,1,.59.09,3.77,3.77,0,0,1,.72.32,3.85,3.85,0,0,1,.84.65,2.83,2.83,0,0,1,.54.76,1.8,1.8,0,0,1,.19.77q0,.45-.2.57a.6.6,0,0,1-.47.06,4.7,4.7,0,0,1-.69-.23,2.45,2.45,0,0,0-.52-.18c-.11,0-.17,0-.17.14s.21.48.63.72a2.41,2.41,0,0,0,.63.26,1.38,1.38,0,0,0,.55,0l.33,1a1.54,1.54,0,0,1-.64-.07A3.68,3.68,0,0,1,155.35,111Z"/><path class="cls-4" d="M151.15,107.47a1.21,1.21,0,0,0,.4.38c.14.08.24.09.31,0s.11-.15.11-.32V106l-.85-.49v-.87l.85.49v-1l1,.57v1l.52.3v.88l-.52-.3v1.61q0,.69-.33.86c-.22.11-.53,0-.94-.18a2.84,2.84,0,0,1-.45-.32,2.15,2.15,0,0,1-.36-.39Z"/><path class="cls-4" d="M148.89,103.18a4.76,4.76,0,0,1,.8.59,4.55,4.55,0,0,1,.67.73l-.35.59a3.09,3.09,0,0,0-.45-.52,2.74,2.74,0,0,0-.53-.41c-.26-.15-.46-.2-.59-.14s-.2.21-.2.46l.78.45a3.31,3.31,0,0,1,1.1,1,1.86,1.86,0,0,1,.36,1.07.8.8,0,0,1-.15.53.51.51,0,0,1-.44.17,1.57,1.57,0,0,1-.68-.24,2.29,2.29,0,0,1-1-1.15v.49l-.92-.53V104c0-.58.14-.94.42-1.06A1.42,1.42,0,0,1,148.89,103.18Zm.08,3.32a.57.57,0,0,0,.41.11c.1,0,.15-.12.15-.26q0-.46-.61-.81l-.68-.39v.4a1.52,1.52,0,0,0,.28.56A1.58,1.58,0,0,0,149,106.5Z"/><path class="cls-4" d="M145.16,105.07a4.09,4.09,0,0,1-.86-.66,2.85,2.85,0,0,1-.55-.76,1.75,1.75,0,0,1-.19-.76q0-.43.2-.56a.58.58,0,0,1,.46-.07,5.82,5.82,0,0,1,.68.22,2.87,2.87,0,0,0,.54.18c.11,0,.17,0,.17-.16a.58.58,0,0,0-.16-.35,1.7,1.7,0,0,0-.47-.38,1.73,1.73,0,0,0-1-.27l-.33-1a1.49,1.49,0,0,1,.59.09,3.77,3.77,0,0,1,.72.32,3.85,3.85,0,0,1,.84.65,2.83,2.83,0,0,1,.54.76,1.79,1.79,0,0,1,.19.77q0,.45-.2.57a.59.59,0,0,1-.47.06,4.7,4.7,0,0,1-.69-.23,2.44,2.44,0,0,0-.52-.18c-.11,0-.17,0-.17.14s.21.48.63.72a2.41,2.41,0,0,0,.63.26,1.38,1.38,0,0,0,.55,0l.33,1a1.54,1.54,0,0,1-.64-.07A3.68,3.68,0,0,1,145.16,105.07Z"/><path class="cls-4" d="M139.39,101.74a3.38,3.38,0,0,1-.94-.8,3.25,3.25,0,0,1-.58-1.07l.76,0a1.82,1.82,0,0,0,.76,1,.63.63,0,0,0,.64.08q.25-.15.25-.65a1.85,1.85,0,0,0-.25-.94,1.74,1.74,0,0,0-.64-.66q-.5-.29-.76.1l-.76-.92a.67.67,0,0,1,.58-.4,1.7,1.7,0,0,1,.94.28,3.7,3.7,0,0,1,1,.82,4,4,0,0,1,.68,1.11,3.12,3.12,0,0,1,.24,1.18,1.46,1.46,0,0,1-.24.9.82.82,0,0,1-.68.33A1.93,1.93,0,0,1,139.39,101.74Z"/><path class="cls-4" d="M135.66,99.59a3.64,3.64,0,0,1-1-.81,4,4,0,0,1-.66-1.1,3.16,3.16,0,0,1-.24-1.18,1.48,1.48,0,0,1,.24-.9.82.82,0,0,1,.66-.33,1.82,1.82,0,0,1,1,.3,3.66,3.66,0,0,1,1,.81,4,4,0,0,1,.67,1.1,3.16,3.16,0,0,1,.24,1.18,1.49,1.49,0,0,1-.24.9.81.81,0,0,1-.67.33A1.86,1.86,0,0,1,135.66,99.59Zm0-.93a.59.59,0,0,0,.63.06.71.71,0,0,0,.25-.65,1.87,1.87,0,0,0-.25-.93,1.7,1.7,0,0,0-.62-.66.58.58,0,0,0-.62-.06.72.72,0,0,0-.24.65A1.88,1.88,0,0,0,135,98,1.68,1.68,0,0,0,135.66,98.65Z"/><path class="cls-4" d="M131,92.86a2.87,2.87,0,0,1,.64.5,3.08,3.08,0,0,1,.49.66v-.46l.94.54V98l-1-.57V95.53a1.84,1.84,0,0,0-.22-.92,1.57,1.57,0,0,0-.59-.61c-.22-.13-.39-.15-.51-.07s-.18.28-.18.6V96.6l-1-.57V93.78q0-.86.39-1.07A1,1,0,0,1,131,92.86Z"/><path class="cls-4" d="M126.29,90.19l1,3.23.94-2.13,1,.59L127.79,95l-1-.59-1.43-4.75Z"/><path class="cls-4" d="M123.62,88.59a4.76,4.76,0,0,1,.8.58,4.59,4.59,0,0,1,.67.73l-.35.59a3.16,3.16,0,0,0-.45-.52,2.83,2.83,0,0,0-.53-.41c-.26-.15-.46-.2-.59-.14s-.2.21-.2.46l.78.45a3.32,3.32,0,0,1,1.1,1,1.87,1.87,0,0,1,.36,1.07.8.8,0,0,1-.15.53.5.5,0,0,1-.44.17,1.55,1.55,0,0,1-.68-.24,2.29,2.29,0,0,1-1-1.14v.49l-.92-.53V89.39q0-.88.42-1.07A1.42,1.42,0,0,1,123.62,88.59Zm.08,3.32a.57.57,0,0,0,.41.11c.1,0,.15-.12.15-.26q0-.46-.61-.81l-.68-.39V91a1.52,1.52,0,0,0,.28.56A1.57,1.57,0,0,0,123.69,91.91Z"/><path class="cls-4" d="M121,91.08l-1-.57V85.1l1,.57Z"/><path class="cls-4" d="M119.06,89.94l-1-.57V84l1,.57Z"/><path class="cls-4" d="M116.6,84.05a1.22,1.22,0,0,1-.44-.44A1.1,1.1,0,0,1,116,83a.33.33,0,0,1,.17-.34.49.49,0,0,1,.44.08,1.24,1.24,0,0,1,.44.44,1.06,1.06,0,0,1,.17.55.35.35,0,0,1-.17.35A.47.47,0,0,1,116.6,84.05Zm.49,4.76-1-.57V84.31l1,.57Z"/><path class="cls-4" d="M114,87.07a4.1,4.1,0,0,1-.86-.66,2.84,2.84,0,0,1-.55-.76,1.75,1.75,0,0,1-.19-.76q0-.43.2-.56a.58.58,0,0,1,.46-.07,5.86,5.86,0,0,1,.68.22,2.84,2.84,0,0,0,.54.18c.11,0,.17,0,.17-.16a.58.58,0,0,0-.16-.35,1.7,1.7,0,0,0-.47-.38,1.73,1.73,0,0,0-1-.27l-.33-1a1.49,1.49,0,0,1,.59.09,3.77,3.77,0,0,1,.72.32,3.83,3.83,0,0,1,.84.65,2.82,2.82,0,0,1,.54.76,1.79,1.79,0,0,1,.19.77q0,.45-.2.57a.59.59,0,0,1-.47.06,4.7,4.7,0,0,1-.69-.23,2.45,2.45,0,0,0-.52-.18c-.11,0-.17,0-.17.14s.21.48.63.72a2.41,2.41,0,0,0,.63.26,1.38,1.38,0,0,0,.55,0l.33,1a1.54,1.54,0,0,1-.64-.07A3.69,3.69,0,0,1,114,87.07Z"/><path class="cls-4" d="M199.83,147.34l-1-.57v-5.41l1,.57Z"/><path class="cls-4" d="M197.38,141.45a1.23,1.23,0,0,1-.44-.44,1.1,1.1,0,0,1-.17-.57.33.33,0,0,1,.17-.34.49.49,0,0,1,.44.08,1.23,1.23,0,0,1,.44.44,1.06,1.06,0,0,1,.17.55.35.35,0,0,1-.17.35A.47.47,0,0,1,197.38,141.45Zm.49,4.76-1-.57v-3.93l1,.57Z"/><path class="cls-4" d="M193.9,139.93a2.67,2.67,0,0,1,1,1.06v-1.9l1,.57v5.41l-.94-.54v-.45q-.37.3-1.07-.11a3.15,3.15,0,0,1-.86-.75,3.8,3.8,0,0,1-.61-1.06,3.33,3.33,0,0,1-.22-1.19,1.67,1.67,0,0,1,.22-.93.77.77,0,0,1,.61-.36A1.54,1.54,0,0,1,193.9,139.93Zm.17,3.21a.58.58,0,0,0,.62.06.72.72,0,0,0,.24-.65,1.88,1.88,0,0,0-.24-.93,1.67,1.67,0,0,0-.62-.65.58.58,0,0,0-.62-.06.72.72,0,0,0-.24.65,1.89,1.89,0,0,0,.24.93A1.68,1.68,0,0,0,194.07,143.14Z"/><path class="cls-4" d="M188.15,138.65a1.64,1.64,0,0,1,.23-.94.77.77,0,0,1,.63-.34,1.7,1.7,0,0,1,.9.27,3.43,3.43,0,0,1,.93.79,4,4,0,0,1,.65,1.1,3.18,3.18,0,0,1,.24,1.18,1.49,1.49,0,0,1-.24.9.81.81,0,0,1-.68.33,2.06,2.06,0,0,1-1-.33,3.56,3.56,0,0,1-1.4-1.44l.52-.35a2.7,2.7,0,0,0,.38.51,2.15,2.15,0,0,0,.47.36.91.91,0,0,0,.64.16.45.45,0,0,0,.33-.39L188.17,139C188.16,138.77,188.15,138.66,188.15,138.65Zm1.76-.16a.64.64,0,0,0-.56-.1.5.5,0,0,0-.28.43l1.67,1a1.78,1.78,0,0,0-.28-.76A1.65,1.65,0,0,0,189.92,138.49Z"/><path class="cls-4" d="M186.49,136.23v-.52l.94.54v3.92l-1-.57v-1.85a1.87,1.87,0,0,0-.24-1,1.78,1.78,0,0,0-.66-.66l-.22-.11V135a3,3,0,0,1,.69.54A2.62,2.62,0,0,1,186.49,136.23Z"/><path class="cls-4" d="M183.09,137.73a3.62,3.62,0,0,1-1-.81,4,4,0,0,1-.66-1.1,3.17,3.17,0,0,1-.24-1.18,1.48,1.48,0,0,1,.24-.9.82.82,0,0,1,.66-.34,1.84,1.84,0,0,1,1,.29,3.65,3.65,0,0,1,1,.82,4,4,0,0,1,.67,1.1,3.15,3.15,0,0,1,.24,1.18,1.48,1.48,0,0,1-.24.9.82.82,0,0,1-.67.33A1.86,1.86,0,0,1,183.09,137.73Zm0-.93a.59.59,0,0,0,.63.07.71.71,0,0,0,.25-.65,1.88,1.88,0,0,0-.25-.93,1.7,1.7,0,0,0-.62-.66.59.59,0,0,0-.62-.06.72.72,0,0,0-.24.65,1.88,1.88,0,0,0,.24.93A1.67,1.67,0,0,0,183.09,136.8Z"/><path class="cls-4" d="M175.32,131.24a1.65,1.65,0,0,1,.23-.94.77.77,0,0,1,.64-.34,1.72,1.72,0,0,1,.9.27,3.43,3.43,0,0,1,.93.79,4,4,0,0,1,.65,1.1,3.19,3.19,0,0,1,.24,1.18,1.49,1.49,0,0,1-.24.9.81.81,0,0,1-.68.33,2.07,2.07,0,0,1-1-.33,3.57,3.57,0,0,1-1.4-1.45l.52-.35a2.72,2.72,0,0,0,.38.51,2.19,2.19,0,0,0,.47.36.9.9,0,0,0,.64.16.45.45,0,0,0,.33-.39l-2.57-1.48C175.33,131.36,175.32,131.26,175.32,131.24Zm1.76-.16a.64.64,0,0,0-.56-.1.5.5,0,0,0-.28.44l1.67,1a1.77,1.77,0,0,0-.28-.76A1.65,1.65,0,0,0,177.09,131.09Z"/><path class="cls-4" d="M172.16,127.44v1.94a1.87,1.87,0,0,0,.21.92,1.5,1.5,0,0,0,.57.59q.69.4.69-.55v-2l1,.57v2.22c0,.58-.13.95-.39,1.09a1.08,1.08,0,0,1-1.06-.17,2.57,2.57,0,0,1-.59-.47,3.16,3.16,0,0,1-.47-.66v.47l-.93-.54v-3.92Z"/><path class="cls-4" d="M164,122.67a2.9,2.9,0,0,1,.7.57,3.35,3.35,0,0,1,.53.78.57.57,0,0,1,.47-.21,1.38,1.38,0,0,1,.65.21,2.63,2.63,0,0,1,.6.48,2.93,2.93,0,0,1,.46.65v-.45l.94.54v3.92l-1-.57v-2a1.85,1.85,0,0,0-.2-.89,1.41,1.41,0,0,0-.54-.57q-.64-.37-.64.55v2.07l-1-.57v-2a1.84,1.84,0,0,0-.2-.89,1.42,1.42,0,0,0-.55-.58q-.31-.18-.48,0c-.11.09-.17.29-.17.6v2.07l-1-.57V123.6q0-.87.38-1.08A1,1,0,0,1,164,122.67Z"/><path class="cls-4" d="M160.29,120.53a4.76,4.76,0,0,1,.8.59,4.58,4.58,0,0,1,.67.73l-.35.59a3.16,3.16,0,0,0-.45-.52,2.85,2.85,0,0,0-.53-.41c-.26-.15-.46-.2-.59-.14s-.2.21-.2.46l.78.45a3.32,3.32,0,0,1,1.1,1,1.86,1.86,0,0,1,.36,1.07.8.8,0,0,1-.15.53.5.5,0,0,1-.44.17,1.55,1.55,0,0,1-.68-.24,2.29,2.29,0,0,1-1-1.14v.49l-.92-.53v-2.24c0-.58.14-.94.42-1.07A1.42,1.42,0,0,1,160.29,120.53Zm.08,3.32a.57.57,0,0,0,.41.11c.1,0,.15-.12.15-.26q0-.46-.61-.81l-.68-.39v.4a1.51,1.51,0,0,0,.28.56A1.56,1.56,0,0,0,160.36,123.85Z"/><path class="cls-4" d="M157.7,123l-1-.57V117l1,.57Z"/><path class="cls-4" d="M152.4,118a1.64,1.64,0,0,1,.23-.94.77.77,0,0,1,.63-.34,1.72,1.72,0,0,1,.9.27,3.44,3.44,0,0,1,.93.79,4,4,0,0,1,.65,1.1,3.19,3.19,0,0,1,.24,1.18,1.49,1.49,0,0,1-.24.9.81.81,0,0,1-.68.33,2.07,2.07,0,0,1-1-.33,3.57,3.57,0,0,1-1.4-1.45l.52-.35a2.71,2.71,0,0,0,.38.51,2.18,2.18,0,0,0,.47.36.9.9,0,0,0,.64.16.45.45,0,0,0,.33-.39l-2.57-1.48C152.41,118.13,152.4,118,152.4,118Zm1.76-.16a.64.64,0,0,0-.56-.1.5.5,0,0,0-.28.44l1.67,1a1.77,1.77,0,0,0-.28-.76A1.65,1.65,0,0,0,154.17,117.85Z"/><path class="cls-4" d="M150.54,118.94a4,4,0,0,1-.86-.65,2.82,2.82,0,0,1-.55-.76,1.75,1.75,0,0,1-.19-.76q0-.43.2-.56a.58.58,0,0,1,.46-.06,5.3,5.3,0,0,1,.68.22,2.76,2.76,0,0,0,.54.17c.11,0,.17,0,.17-.16a.59.59,0,0,0-.16-.35,2.06,2.06,0,0,0-1.45-.65l-.33-1a1.44,1.44,0,0,1,.59.09,3.68,3.68,0,0,1,.72.32,3.88,3.88,0,0,1,.84.65,2.87,2.87,0,0,1,.54.76,1.8,1.8,0,0,1,.19.77q0,.45-.2.57a.6.6,0,0,1-.47.06,4.84,4.84,0,0,1-.69-.23,2.33,2.33,0,0,0-.52-.18c-.11,0-.17,0-.17.14s.21.48.63.72a2.49,2.49,0,0,0,.63.26,1.39,1.39,0,0,0,.55,0l.33,1a1.54,1.54,0,0,1-.64-.07A3.56,3.56,0,0,1,150.54,118.94Z"/><path class="cls-4" d="M145.83,112.24v1.94a1.87,1.87,0,0,0,.21.92,1.5,1.5,0,0,0,.57.59q.69.4.69-.55v-2l1,.57v2.22c0,.58-.13.95-.39,1.09a1.08,1.08,0,0,1-1.06-.17,2.52,2.52,0,0,1-.59-.47,3.14,3.14,0,0,1-.47-.66v.47l-.93-.54v-3.92Z"/><path class="cls-4" d="M142.49,110.25a4.77,4.77,0,0,1,.8.59,4.54,4.54,0,0,1,.67.73l-.35.59a3.11,3.11,0,0,0-.45-.52,2.77,2.77,0,0,0-.53-.41c-.26-.15-.46-.2-.59-.14s-.2.21-.2.46l.78.45a3.32,3.32,0,0,1,1.1,1,1.86,1.86,0,0,1,.36,1.07.8.8,0,0,1-.15.53.51.51,0,0,1-.44.17,1.57,1.57,0,0,1-.68-.24,2.29,2.29,0,0,1-1-1.15v.49l-.92-.53v-2.24c0-.58.14-.94.42-1.06A1.42,1.42,0,0,1,142.49,110.25Zm.08,3.32a.57.57,0,0,0,.41.11c.1,0,.15-.12.15-.26q0-.46-.61-.81l-.68-.39v.4a1.51,1.51,0,0,0,.28.56A1.57,1.57,0,0,0,142.57,113.57Z"/><path class="cls-4" d="M137.39,105.87v1.9q.37-.26,1,.11a3.19,3.19,0,0,1,.87.75,3.71,3.71,0,0,1,.61,1.06,3.36,3.36,0,0,1,.22,1.19,1.68,1.68,0,0,1-.22.94.75.75,0,0,1-.61.36,1.58,1.58,0,0,1-.87-.25,2.66,2.66,0,0,1-1.06-1.12v.45l-.94-.54v-5.41Zm.85,5a.59.59,0,0,0,.63.07.71.71,0,0,0,.25-.65,1.87,1.87,0,0,0-.25-.94,1.69,1.69,0,0,0-.62-.66.58.58,0,0,0-.62-.06.71.71,0,0,0-.25.65,1.88,1.88,0,0,0,.25.93A1.68,1.68,0,0,0,138.23,110.9Z"/><path class="cls-4" d="M134.06,105.38a4.77,4.77,0,0,1,.8.59,4.54,4.54,0,0,1,.67.73l-.35.59a3.11,3.11,0,0,0-.45-.52,2.77,2.77,0,0,0-.53-.41c-.26-.15-.46-.2-.59-.14s-.2.21-.2.46l.78.45a3.32,3.32,0,0,1,1.1,1,1.86,1.86,0,0,1,.36,1.07.8.8,0,0,1-.15.53.51.51,0,0,1-.44.17,1.57,1.57,0,0,1-.68-.24,2.29,2.29,0,0,1-1-1.15V109l-.92-.53v-2.24c0-.58.14-.94.42-1.06A1.42,1.42,0,0,1,134.06,105.38Zm.08,3.32a.57.57,0,0,0,.41.11c.1,0,.15-.12.15-.26q0-.46-.61-.81l-.68-.39v.4a1.51,1.51,0,0,0,.28.56A1.57,1.57,0,0,0,134.13,108.7Z"/><path class="cls-4" d="M131.1,107.71a1.21,1.21,0,0,1-.44-.45,1.23,1.23,0,0,1-.18-.61c0-.21.06-.34.18-.4a.45.45,0,0,1,.44.06,1.22,1.22,0,0,1,.44.45,1.17,1.17,0,0,1,.18.61.43.43,0,0,1-.18.41A.42.42,0,0,1,131.1,107.71Z"/></g></g></g></svg>