<svg xmlns="http://www.w3.org/2000/svg" xmlns:xlink="http://www.w3.org/1999/xlink" viewBox="0 0 127.51 167.28"><defs><style>.cls-1,.cls-10,.cls-11,.cls-13,.cls-3,.cls-5,.cls-7,.cls-8{opacity:0.8;}.cls-1{fill:url(#_ÂÁ_Ï_ÌÌ_È_ËÂÌÚ_72);}.cls-2{fill:url(#_ÂÁ_Ï_ÌÌ_È_ËÂÌÚ_72-2);}.cls-3{fill:url(#_ÂÁ_Ï_ÌÌ_È_ËÂÌÚ_72-3);}.cls-4{fill:#6a7ba8;}.cls-5{fill:url(#_ÂÁ_Ï_ÌÌ_È_ËÂÌÚ_72-4);}.cls-6{fill:url(#_ÂÁ_Ï_ÌÌ_È_ËÂÌÚ_72-5);}.cls-7{fill:url(#_ÂÁ_Ï_ÌÌ_È_ËÂÌÚ_72-6);}.cls-8{fill:url(#_ÂÁ_Ï_ÌÌ_È_ËÂÌÚ_72-7);}.cls-9{fill:url(#_ÂÁ_Ï_ÌÌ_È_ËÂÌÚ_72-8);}.cls-10{fill:url(#_ÂÁ_Ï_ÌÌ_È_ËÂÌÚ_72-9);}.cls-11{fill:url(#_ÂÁ_Ï_ÌÌ_È_ËÂÌÚ_72-10);}.cls-12{fill:url(#_ÂÁ_Ï_ÌÌ_È_ËÂÌÚ_72-11);}.cls-13{fill:url(#_ÂÁ_Ï_ÌÌ_È_ËÂÌÚ_72-12);}</style><linearGradient id="_ÂÁ_Ï_ÌÌ_È_ËÂÌÚ_72" x1="85.04" y1="93.3" x2="127.51" y2="93.3" gradientUnits="userSpaceOnUse"><stop offset="0" stop-color="#a52e59"/><stop offset="0.21" stop-color="#ac2f59"/><stop offset="0.5" stop-color="#bf3059"/><stop offset="0.85" stop-color="#de335a"/><stop offset="1" stop-color="#ed345a"/></linearGradient><linearGradient id="_ÂÁ_Ï_ÌÌ_È_ËÂÌÚ_72-2" x1="106.28" y1="46.61" x2="106.28" y2="2.08" xlink:href="#_ÂÁ_Ï_ÌÌ_È_ËÂÌÚ_72"/><linearGradient id="_ÂÁ_Ï_ÌÌ_È_ËÂÌÚ_72-3" x1="87.32" y1="58.91" x2="118.42" y2="58.91" xlink:href="#_ÂÁ_Ï_ÌÌ_È_ËÂÌÚ_72"/><linearGradient id="_ÂÁ_Ï_ÌÌ_È_ËÂÌÚ_72-4" x1="56.69" y1="109.6" x2="99.17" y2="109.6" xlink:href="#_ÂÁ_Ï_ÌÌ_È_ËÂÌÚ_72"/><linearGradient id="_ÂÁ_Ï_ÌÌ_È_ËÂÌÚ_72-5" x1="77.93" y1="74.08" x2="77.93" y2="29.55" xlink:href="#_ÂÁ_Ï_ÌÌ_È_ËÂÌÚ_72"/><linearGradient id="_ÂÁ_Ï_ÌÌ_È_ËÂÌÚ_72-6" x1="58.98" y1="80.8" x2="90.08" y2="80.8" xlink:href="#_ÂÁ_Ï_ÌÌ_È_ËÂÌÚ_72"/><linearGradient id="_ÂÁ_Ï_ÌÌ_È_ËÂÌÚ_72-7" x1="28.35" y1="125.99" x2="70.82" y2="125.99" xlink:href="#_ÂÁ_Ï_ÌÌ_È_ËÂÌÚ_72"/><linearGradient id="_ÂÁ_Ï_ÌÌ_È_ËÂÌÚ_72-8" x1="49.58" y1="110.05" x2="49.58" y2="65.52" xlink:href="#_ÂÁ_Ï_ÌÌ_È_ËÂÌÚ_72"/><linearGradient id="_ÂÁ_Ï_ÌÌ_È_ËÂÌÚ_72-9" x1="30.63" y1="106.97" x2="61.73" y2="106.97" xlink:href="#_ÂÁ_Ï_ÌÌ_È_ËÂÌÚ_72"/><linearGradient id="_ÂÁ_Ï_ÌÌ_È_ËÂÌÚ_72-10" x1="0" y1="142.37" x2="42.47" y2="142.37" xlink:href="#_ÂÁ_Ï_ÌÌ_È_ËÂÌÚ_72"/><linearGradient id="_ÂÁ_Ï_ÌÌ_È_ËÂÌÚ_72-11" x1="21.24" y1="139.91" x2="21.24" y2="95.38" xlink:href="#_ÂÁ_Ï_ÌÌ_È_ËÂÌÚ_72"/><linearGradient id="_ÂÁ_Ï_ÌÌ_È_ËÂÌÚ_72-12" x1="2.28" y1="130.1" x2="33.38" y2="130.1" xlink:href="#_ÂÁ_Ï_ÌÌ_È_ËÂÌÚ_72"/></defs><title>graph5</title><g id="Layer_2" data-name="Layer 2"><g id="Isolation_Mode" data-name="Isolation Mode"><polygon class="cls-1" points="106.28 105.56 85.04 93.3 106.28 81.04 127.51 93.3 106.28 105.56"/><polygon class="cls-2" points="106.28 24.52 85.04 12.26 106.28 0 127.51 12.26 106.28 24.52"/><polygon class="cls-3" points="127.52 12.26 106.28 24.52 85.04 12.26 85.04 93.3 106.28 105.56 106.28 105.56 106.28 105.56 106.28 105.56 106.28 105.56 127.52 93.3 127.52 12.26"/><path class="cls-4" d="M28.52,160.85q0-.47-.14-.56c-.09-.06-.21,0-.36,0a1,1,0,0,0-.36.37,1.24,1.24,0,0,0-.14.62v.76l-.91.53v-.69a3.16,3.16,0,0,1,.36-1.53A2.75,2.75,0,0,1,28,159.31q.71-.41,1.07-.16t.36,1.11a4.23,4.23,0,0,1-.15,1.13,7.92,7.92,0,0,1-.38,1.07c-.15.34-.31.67-.49,1s-.33.61-.47.88a6.05,6.05,0,0,0-.33.76,1.36,1.36,0,0,0-.08.64l1.82-1.05v1l-2.78,1.6v-.87a3.46,3.46,0,0,1,.14-1,6.35,6.35,0,0,1,.35-.93q.21-.45.46-.88c.16-.29.32-.58.46-.88a6.28,6.28,0,0,0,.35-.91A3.39,3.39,0,0,0,28.52,160.85Z"/><path class="cls-4" d="M30.29,159.79a3.11,3.11,0,0,1,.38-1.53,2.82,2.82,0,0,1,1.08-1.08c.47-.27.83-.33,1.08-.17s.37.53.37,1.1v3.67a3.11,3.11,0,0,1-.37,1.53,2.82,2.82,0,0,1-1.08,1.09c-.47.27-.83.33-1.08.17s-.37-.53-.37-1.1Zm1,3.19c0,.26,0,.41.14.46a.36.36,0,0,0,.36-.05,1,1,0,0,0,.36-.37,1.23,1.23,0,0,0,.14-.62v-3.81c0-.26,0-.41-.14-.46a.36.36,0,0,0-.36.05,1,1,0,0,0-.36.37,1.22,1.22,0,0,0-.14.62Z"/><path class="cls-4" d="M33.88,156.91a2.36,2.36,0,0,0,.46-.33,1.89,1.89,0,0,0,.29-.36,2.07,2.07,0,0,0,.18-.39c0-.13.09-.27.12-.41l.65-.37v7.06l-1,.55v-5.39l-.74.43Z"/><path class="cls-4" d="M39.46,158.17a3.07,3.07,0,0,1-.38,1.54A2.93,2.93,0,0,1,38,160.81q-.74.42-1.12.19t-.38-1.09v-.55a3.28,3.28,0,0,1,.14-1,2.41,2.41,0,0,1,.45-.84c-.4,0-.59-.38-.59-1.08v-.22a3.08,3.08,0,0,1,.38-1.54A2.94,2.94,0,0,1,38,153.59q.73-.42,1.12-.19t.38,1.1v.22a2.7,2.7,0,0,1-.59,1.77.51.51,0,0,1,.45.32,2,2,0,0,1,.14.81Zm-2-2.06c0,.28.05.45.15.5a.42.42,0,0,0,.39-.06,1.11,1.11,0,0,0,.38-.38,1.27,1.27,0,0,0,.16-.68v-.39q0-.47-.16-.55a.41.41,0,0,0-.38.06,1.1,1.1,0,0,0-.38.39,1.41,1.41,0,0,0-.16.73Zm0,3.21q0,.47.16.54a.42.42,0,0,0,.38-.06,1.06,1.06,0,0,0,.38-.38,1.46,1.46,0,0,0,.16-.73V158c0-.28,0-.46-.14-.53s-.23-.05-.4,0a1,1,0,0,0-.4.42,1.46,1.46,0,0,0-.15.69Z"/><path class="cls-4" d="M56.36,144.85c0-.32,0-.5-.14-.56s-.21,0-.36,0a1,1,0,0,0-.36.37,1.24,1.24,0,0,0-.13.62v.76l-.91.53v-.69a3.17,3.17,0,0,1,.36-1.53,2.75,2.75,0,0,1,1.07-1.08q.71-.41,1.07-.16t.36,1.11a4.22,4.22,0,0,1-.15,1.13,7.65,7.65,0,0,1-.38,1.07c-.15.34-.31.67-.49,1s-.33.61-.47.88a5.92,5.92,0,0,0-.33.76,1.36,1.36,0,0,0-.08.64l1.82-1.05v1l-2.78,1.6v-.87a3.46,3.46,0,0,1,.14-1,6.48,6.48,0,0,1,.35-.93c.14-.3.3-.59.46-.88s.32-.58.46-.88a6.18,6.18,0,0,0,.35-.91A3.36,3.36,0,0,0,56.36,144.85Z"/><path class="cls-4" d="M58.14,143.79a3.11,3.11,0,0,1,.37-1.53,2.82,2.82,0,0,1,1.08-1.08c.47-.27.83-.33,1.08-.17s.37.53.37,1.1v3.67a3.11,3.11,0,0,1-.37,1.53,2.81,2.81,0,0,1-1.08,1.09q-.71.41-1.08.17t-.37-1.1Zm1,3.19c0,.26,0,.41.13.46a.36.36,0,0,0,.36-.05A1,1,0,0,0,60,147a1.22,1.22,0,0,0,.14-.62v-3.81c0-.26,0-.41-.14-.46s-.21,0-.36.05a1,1,0,0,0-.36.37,1.23,1.23,0,0,0-.13.62Z"/><path class="cls-4" d="M61.73,140.91a2.38,2.38,0,0,0,.46-.33,1.89,1.89,0,0,0,.29-.36,2.14,2.14,0,0,0,.18-.39c0-.13.09-.27.12-.41l.65-.37v7.06l-1,.55v-5.39l-.74.43Z"/><path class="cls-4" d="M67.21,142.16a3.32,3.32,0,0,1-.36,1.57,2.81,2.81,0,0,1-1.11,1.11q-.71.41-1.07.16t-.36-1.11v-.18l.91-.52v.25c0,.26,0,.41.14.46a.36.36,0,0,0,.36-.05,1,1,0,0,0,.39-.41,1.7,1.7,0,0,0,.14-.77v-1.29a2,2,0,0,1-.89,1.14q-.53.31-.8,0a1.49,1.49,0,0,1-.27-1v-1.29a3.11,3.11,0,0,1,.37-1.54,2.84,2.84,0,0,1,1.08-1.08q.71-.41,1.08-.17c.25.16.38.53.38,1.1Zm-1.46-.87a1,1,0,0,0,.36-.37,1.24,1.24,0,0,0,.13-.62V139c0-.26,0-.41-.13-.46a.38.38,0,0,0-.36.06,1,1,0,0,0-.36.36,1.21,1.21,0,0,0-.13.62v1.28c0,.26,0,.41.13.46A.36.36,0,0,0,65.75,141.29Z"/><path class="cls-4" d="M84,128.77q0-.47-.14-.56c-.09-.06-.21,0-.36,0a1,1,0,0,0-.36.37,1.24,1.24,0,0,0-.14.62V130l-.91.53v-.69a3.16,3.16,0,0,1,.36-1.53,2.75,2.75,0,0,1,1.07-1.08q.71-.41,1.07-.16t.36,1.11a4.22,4.22,0,0,1-.15,1.13,7.91,7.91,0,0,1-.38,1.07c-.15.34-.31.67-.49,1s-.33.61-.47.88a6.07,6.07,0,0,0-.33.76,1.36,1.36,0,0,0-.08.64l1.82-1.05v1l-2.78,1.6v-.87a3.46,3.46,0,0,1,.14-1,6.35,6.35,0,0,1,.35-.93q.21-.45.46-.88c.16-.29.32-.58.46-.88a6.29,6.29,0,0,0,.35-.91A3.39,3.39,0,0,0,84,128.77Z"/><path class="cls-4" d="M85.73,127.71a3.11,3.11,0,0,1,.37-1.53,2.83,2.83,0,0,1,1.08-1.09c.47-.27.83-.33,1.08-.17s.37.53.37,1.1v3.67a3.11,3.11,0,0,1-.37,1.53,2.82,2.82,0,0,1-1.08,1.09c-.47.27-.83.33-1.08.17s-.37-.53-.37-1.1Zm1,3.19c0,.26,0,.41.14.46a.36.36,0,0,0,.36-.05,1,1,0,0,0,.36-.37,1.23,1.23,0,0,0,.14-.62v-3.81c0-.26,0-.41-.14-.46a.36.36,0,0,0-.36.05,1,1,0,0,0-.36.37,1.22,1.22,0,0,0-.14.62Z"/><path class="cls-4" d="M91.41,124.47c0-.31,0-.5-.14-.56s-.21,0-.36,0a1,1,0,0,0-.36.37,1.22,1.22,0,0,0-.14.62v.76l-.91.52v-.69a3.15,3.15,0,0,1,.36-1.53,2.74,2.74,0,0,1,1.07-1.08q.71-.41,1.07-.16t.36,1.11a4.21,4.21,0,0,1-.15,1.13,7.93,7.93,0,0,1-.38,1.07q-.23.51-.49,1t-.47.88a6,6,0,0,0-.33.76,1.35,1.35,0,0,0-.08.64l1.82-1v1l-2.78,1.6V130a3.5,3.5,0,0,1,.14-1,6.18,6.18,0,0,1,.35-.93q.21-.45.46-.88t.46-.88a6.28,6.28,0,0,0,.35-.91A3.37,3.37,0,0,0,91.41,124.47Z"/><path class="cls-4" d="M93.18,123.41a3.1,3.1,0,0,1,.38-1.53,2.82,2.82,0,0,1,1.08-1.08c.47-.27.83-.33,1.08-.17s.38.53.38,1.1v3.67a3.1,3.1,0,0,1-.38,1.53A2.82,2.82,0,0,1,94.64,128q-.71.41-1.08.17t-.38-1.1Zm1,3.19c0,.26,0,.41.14.46s.21,0,.36-.05a1,1,0,0,0,.36-.37,1.24,1.24,0,0,0,.14-.62v-3.81c0-.26,0-.41-.14-.46a.36.36,0,0,0-.36.05,1,1,0,0,0-.36.37,1.22,1.22,0,0,0-.14.62Z"/><path class="cls-4" d="M112.31,112.44q0-.47-.14-.56c-.09-.06-.21,0-.36,0a1,1,0,0,0-.36.37,1.24,1.24,0,0,0-.14.62v.76l-.91.53v-.69a3.16,3.16,0,0,1,.36-1.53,2.75,2.75,0,0,1,1.07-1.08q.71-.41,1.07-.16t.36,1.11a4.23,4.23,0,0,1-.15,1.13,7.92,7.92,0,0,1-.38,1.07c-.15.34-.31.67-.49,1s-.33.61-.47.88a6.06,6.06,0,0,0-.33.76,1.36,1.36,0,0,0-.08.64l1.82-1.05v1l-2.78,1.6V118a3.46,3.46,0,0,1,.14-1,6.33,6.33,0,0,1,.35-.93q.21-.45.46-.88c.16-.29.32-.58.46-.88a6.29,6.29,0,0,0,.35-.91A3.4,3.4,0,0,0,112.31,112.44Z"/><path class="cls-4" d="M114.08,111.37a3.11,3.11,0,0,1,.38-1.53,2.82,2.82,0,0,1,1.08-1.09c.47-.27.83-.33,1.08-.17s.37.53.37,1.1v3.67a3.11,3.11,0,0,1-.37,1.53,2.82,2.82,0,0,1-1.08,1.09c-.47.27-.83.33-1.08.17s-.37-.53-.37-1.1Zm1,3.19c0,.26,0,.41.14.46a.36.36,0,0,0,.36-.05,1,1,0,0,0,.36-.37A1.23,1.23,0,0,0,116,114v-3.81c0-.26,0-.41-.14-.46a.36.36,0,0,0-.36.05,1,1,0,0,0-.36.37,1.22,1.22,0,0,0-.14.62Z"/><path class="cls-4" d="M119.75,108.14c0-.31,0-.5-.14-.56s-.21,0-.36,0a1,1,0,0,0-.36.37,1.22,1.22,0,0,0-.14.62v.76l-.91.52v-.69a3.15,3.15,0,0,1,.36-1.53,2.74,2.74,0,0,1,1.07-1.08q.71-.41,1.07-.16t.36,1.11a4.22,4.22,0,0,1-.15,1.13,7.93,7.93,0,0,1-.38,1.07q-.23.51-.49,1t-.47.88a6,6,0,0,0-.33.76,1.35,1.35,0,0,0-.08.64l1.82-1v1l-2.78,1.6v-.87a3.5,3.5,0,0,1,.14-1,6.19,6.19,0,0,1,.35-.93q.21-.45.46-.88t.46-.88a6.27,6.27,0,0,0,.35-.91A3.37,3.37,0,0,0,119.75,108.14Z"/><path class="cls-4" d="M121.35,106.37a2.33,2.33,0,0,0,.46-.34,1.86,1.86,0,0,0,.29-.36,2,2,0,0,0,.18-.39c0-.13.09-.27.12-.41l.65-.37v7.06l-1,.56v-5.39l-.74.43Z"/><polygon class="cls-5" points="77.93 121.86 56.7 109.61 77.93 97.34 99.17 109.61 77.93 121.86"/><polygon class="cls-6" points="77.93 51.99 56.7 39.73 77.93 27.47 99.17 39.73 77.93 51.99"/><polygon class="cls-7" points="99.17 39.73 77.93 51.99 56.7 39.73 56.7 109.61 77.93 121.86 77.93 121.86 77.93 121.86 77.93 121.86 77.93 121.86 99.17 109.61 99.17 39.73"/><polygon class="cls-8" points="49.58 138.25 28.35 125.99 49.58 113.73 70.82 125.99 49.58 138.25"/><polygon class="cls-9" points="49.58 87.96 28.35 75.7 49.58 63.44 70.82 75.7 49.58 87.96"/><polygon class="cls-10" points="70.82 75.7 49.58 87.96 28.35 75.7 28.35 125.99 49.58 138.25 49.58 138.25 49.58 138.25 49.58 138.25 49.58 138.25 70.82 125.99 70.82 75.7"/><polygon class="cls-11" points="21.24 154.63 0 142.37 21.24 130.11 42.47 142.37 21.24 154.63"/><polygon class="cls-12" points="21.24 117.82 0 105.56 21.24 93.3 42.47 105.56 21.24 117.82"/><polygon class="cls-13" points="42.47 105.56 21.24 117.82 0 105.56 0 142.37 21.24 154.63 21.24 154.63 21.24 154.63 21.24 154.63 21.24 154.63 42.47 142.37 42.47 105.56"/></g></g></svg>